<?xml version="1.0" encoding="UTF-8"?>
<!DOCTYPE svg PUBLIC "-//W3C//DTD SVG 1.1//EN" "http://www.w3.org/Graphics/SVG/1.1/DTD/svg11.dtd">
<svg version="1.2" width="20mm" height="34mm" viewBox="0 0 2000 3400" preserveAspectRatio="xMidYMid" fill-rule="evenodd" stroke-width="28.222" stroke-linejoin="round" xmlns="http://www.w3.org/2000/svg" xmlns:ooo="http://xml.openoffice.org/svg/export" xmlns:xlink="http://www.w3.org/1999/xlink" xmlns:presentation="http://sun.com/xmlns/staroffice/presentation" xmlns:smil="http://www.w3.org/2001/SMIL20/" xmlns:anim="urn:oasis:names:tc:opendocument:xmlns:animation:1.0" xml:space="preserve">
 <defs class="ClipPathGroup">
  <clipPath id="presentation_clip_path" clipPathUnits="userSpaceOnUse">
   <rect x="0" y="0" width="2000" height="3400"/>
  </clipPath>
  <clipPath id="presentation_clip_path_shrink" clipPathUnits="userSpaceOnUse">
   <rect x="2" y="3" width="1996" height="3394"/>
  </clipPath>
 </defs>
 <defs class="TextShapeIndex">
  <g ooo:slide="id1" ooo:id-list="id3 id4 id5"/>
 </defs>
 <defs class="EmbeddedBulletChars">
  <g id="bullet-char-template-57356" transform="scale(0.00048828125,-0.00048828125)">
   <path d="M 580,1141 L 1163,571 580,0 -4,571 580,1141 Z"/>
  </g>
  <g id="bullet-char-template-57354" transform="scale(0.00048828125,-0.00048828125)">
   <path d="M 8,1128 L 1137,1128 1137,0 8,0 8,1128 Z"/>
  </g>
  <g id="bullet-char-template-10146" transform="scale(0.00048828125,-0.00048828125)">
   <path d="M 174,0 L 602,739 174,1481 1456,739 174,0 Z M 1358,739 L 309,1346 659,739 1358,739 Z"/>
  </g>
  <g id="bullet-char-template-10132" transform="scale(0.00048828125,-0.00048828125)">
   <path d="M 2015,739 L 1276,0 717,0 1260,543 174,543 174,936 1260,936 717,1481 1274,1481 2015,739 Z"/>
  </g>
  <g id="bullet-char-template-10007" transform="scale(0.00048828125,-0.00048828125)">
   <path d="M 0,-2 C -7,14 -16,27 -25,37 L 356,567 C 262,823 215,952 215,954 215,979 228,992 255,992 264,992 276,990 289,987 310,991 331,999 354,1012 L 381,999 492,748 772,1049 836,1024 860,1049 C 881,1039 901,1025 922,1006 886,937 835,863 770,784 769,783 710,716 594,584 L 774,223 C 774,196 753,168 711,139 L 727,119 C 717,90 699,76 672,76 641,76 570,178 457,381 L 164,-76 C 142,-110 111,-127 72,-127 30,-127 9,-110 8,-76 1,-67 -2,-52 -2,-32 -2,-23 -1,-13 0,-2 Z"/>
  </g>
  <g id="bullet-char-template-10004" transform="scale(0.00048828125,-0.00048828125)">
   <path d="M 285,-33 C 182,-33 111,30 74,156 52,228 41,333 41,471 41,549 55,616 82,672 116,743 169,778 240,778 293,778 328,747 346,684 L 369,508 C 377,444 397,411 428,410 L 1163,1116 C 1174,1127 1196,1133 1229,1133 1271,1133 1292,1118 1292,1087 L 1292,965 C 1292,929 1282,901 1262,881 L 442,47 C 390,-6 338,-33 285,-33 Z"/>
  </g>
  <g id="bullet-char-template-9679" transform="scale(0.00048828125,-0.00048828125)">
   <path d="M 813,0 C 632,0 489,54 383,161 276,268 223,411 223,592 223,773 276,916 383,1023 489,1130 632,1184 813,1184 992,1184 1136,1130 1245,1023 1353,916 1407,772 1407,592 1407,412 1353,268 1245,161 1136,54 992,0 813,0 Z"/>
  </g>
  <g id="bullet-char-template-8226" transform="scale(0.00048828125,-0.00048828125)">
   <path d="M 346,457 C 273,457 209,483 155,535 101,586 74,649 74,723 74,796 101,859 155,911 209,963 273,989 346,989 419,989 480,963 531,910 582,859 608,796 608,723 608,648 583,586 532,535 482,483 420,457 346,457 Z"/>
  </g>
  <g id="bullet-char-template-8211" transform="scale(0.00048828125,-0.00048828125)">
   <path d="M -4,459 L 1135,459 1135,606 -4,606 -4,459 Z"/>
  </g>
  <g id="bullet-char-template-61548" transform="scale(0.00048828125,-0.00048828125)">
   <path d="M 173,740 C 173,903 231,1043 346,1159 462,1274 601,1332 765,1332 928,1332 1067,1274 1183,1159 1299,1043 1357,903 1357,740 1357,577 1299,437 1183,322 1067,206 928,148 765,148 601,148 462,206 346,322 231,437 173,577 173,740 Z"/>
  </g>
 </defs>
 <g>
  <g id="id2" class="Master_Slide">
   <g id="bg-id2" class="Background"/>
   <g id="bo-id2" class="BackgroundObjects"/>
  </g>
 </g>
 <g class="SlideGroup">
  <g>
   <g id="container-id1">
    <g id="id1" class="Slide" clip-path="url(#presentation_clip_path)">
     <g class="Page">
      <g class="Group">
       <g class="com.sun.star.drawing.CustomShape">
        <g id="id3">
         <rect class="BoundingBox" stroke="none" fill="none" x="15" y="95" width="1979" height="3282"/>
         <g>
          <defs>
           <pattern id="pattern1" x="25" y="105" width="1958" height="3262" patternUnits="userSpaceOnUse">
            <g transform="translate(-25,-105)">
             <defs>
              <clipPath id="clip_path_1" clipPathUnits="userSpaceOnUse">
               <path d="M 21,106 L 1990,106 1990,3366 21,3366 21,106 Z"/>
              </clipPath>
             </defs>
             <g clip-path="url(#clip_path_1)">
              <path fill="rgb(187,227,61)" stroke="none" d="M 24,104 L 1983,104 1983,3367 24,3367 24,104 Z M 3048,1409 L 3046,1315 3039,1222 3027,1129 3010,1037 2989,946 2963,856 2933,767 2898,680 2859,595 2816,512 2768,431 2717,353 2661,278 2602,205 2539,136 2473,70 2404,7 2331,-52 2256,-108 2178,-159 2097,-207 2014,-250 1929,-289 1842,-324 1753,-354 1663,-380 1572,-401 1480,-418 1387,-430 1294,-437 1200,-439 1200,-439 1106,-437 1013,-430 920,-418 828,-401 737,-380 647,-354 558,-324 471,-289 386,-250 303,-207 222,-159 144,-108 69,-52 -4,7 -73,70 -139,136 -202,205 -261,278 -317,353 -368,431 -416,512 -459,595 -498,680 -533,767 -563,856 -589,946 -610,1037 -627,1129 -639,1222 -646,1315 -648,1409 -648,1409 -646,1503 -639,1596 -627,1689 -610,1781 -589,1872 -563,1962 -533,2051 -498,2138 -459,2223 -416,2306 -368,2387 -317,2465 -261,2540 -202,2613 -139,2682 -73,2748 -4,2811 69,2870 144,2926 222,2977 303,3025 386,3068 471,3107 558,3142 647,3172 737,3198 828,3219 920,3236 1013,3248 1106,3255 1200,3257 1200,3257 1294,3255 1387,3248 1480,3236 1572,3219 1663,3198 1753,3172 1842,3142 1929,3107 2014,3068 2097,3025 2178,2977 2256,2926 2331,2870 2404,2811 2473,2748 2539,2682 2602,2613 2661,2540 2717,2465 2768,2387 2816,2306 2859,2223 2898,2138 2933,2051 2963,1962 2989,1872 3010,1781 3027,1689 3039,1596 3046,1503 3048,1409 Z"/>
              <path fill="rgb(188,227,66)" stroke="none" d="M 3048,1409 L 3046,1315 3039,1222 3027,1129 3010,1037 2989,946 2963,856 2933,767 2898,680 2859,595 2816,512 2768,431 2717,353 2661,278 2602,205 2539,136 2473,70 2404,7 2331,-52 2256,-108 2178,-159 2097,-207 2014,-250 1929,-289 1842,-324 1753,-354 1663,-380 1572,-401 1480,-418 1387,-430 1294,-437 1200,-439 1200,-439 1106,-437 1013,-430 920,-418 828,-401 737,-380 647,-354 558,-324 471,-289 386,-250 303,-207 222,-159 144,-108 69,-52 -4,7 -73,70 -139,136 -202,205 -261,278 -317,353 -368,431 -416,512 -459,595 -498,680 -533,767 -563,856 -589,946 -610,1037 -627,1129 -639,1222 -646,1315 -648,1409 -648,1409 -646,1503 -639,1596 -627,1689 -610,1781 -589,1872 -563,1962 -533,2051 -498,2138 -459,2223 -416,2306 -368,2387 -317,2465 -261,2540 -202,2613 -139,2682 -73,2748 -4,2811 69,2870 144,2926 222,2977 303,3025 386,3068 471,3107 558,3142 647,3172 737,3198 828,3219 920,3236 1013,3248 1106,3255 1200,3257 1200,3257 1294,3255 1387,3248 1480,3236 1572,3219 1663,3198 1753,3172 1842,3142 1929,3107 2014,3068 2097,3025 2178,2977 2256,2926 2331,2870 2404,2811 2473,2748 2539,2682 2602,2613 2661,2540 2717,2465 2768,2387 2816,2306 2859,2223 2898,2138 2933,2051 2963,1962 2989,1872 3010,1781 3027,1689 3039,1596 3046,1503 3048,1409 Z M 2994,1409 L 2992,1318 2985,1228 2973,1137 2957,1048 2937,959 2912,872 2882,786 2849,702 2811,619 2769,538 2722,460 2672,384 2619,311 2561,240 2500,173 2436,109 2369,48 2298,-10 2225,-63 2149,-113 2071,-160 1990,-202 1907,-240 1823,-273 1737,-303 1650,-328 1561,-348 1472,-364 1381,-376 1291,-383 1200,-385 1200,-385 1109,-383 1019,-376 928,-364 839,-348 750,-328 663,-303 577,-273 493,-240 410,-202 329,-160 251,-113 175,-63 102,-10 31,48 -36,109 -100,173 -161,240 -219,311 -272,384 -322,460 -369,538 -411,619 -449,702 -482,786 -512,872 -537,959 -557,1048 -573,1137 -585,1228 -592,1318 -594,1409 -594,1409 -592,1500 -585,1590 -573,1681 -557,1770 -537,1859 -512,1946 -482,2032 -449,2116 -411,2199 -369,2280 -322,2358 -272,2434 -219,2507 -161,2578 -100,2645 -36,2709 31,2770 102,2828 175,2881 251,2931 329,2978 410,3020 493,3058 577,3091 663,3121 750,3146 839,3166 928,3182 1019,3194 1109,3201 1200,3203 1200,3203 1291,3201 1381,3194 1472,3182 1561,3166 1650,3146 1737,3121 1823,3091 1907,3058 1990,3020 2071,2978 2149,2931 2225,2881 2298,2828 2369,2770 2436,2709 2500,2645 2561,2578 2619,2507 2672,2434 2722,2358 2769,2280 2811,2199 2849,2116 2882,2032 2912,1946 2937,1859 2957,1770 2973,1681 2985,1590 2992,1500 2994,1409 Z"/>
              <path fill="rgb(189,227,71)" stroke="none" d="M 2994,1409 L 2992,1318 2985,1228 2973,1137 2957,1048 2937,959 2912,872 2882,786 2849,702 2811,619 2769,538 2722,460 2672,384 2619,311 2561,240 2500,173 2436,109 2369,48 2298,-10 2225,-63 2149,-113 2071,-160 1990,-202 1907,-240 1823,-273 1737,-303 1650,-328 1561,-348 1472,-364 1381,-376 1291,-383 1200,-385 1200,-385 1109,-383 1019,-376 928,-364 839,-348 750,-328 663,-303 577,-273 493,-240 410,-202 329,-160 251,-113 175,-63 102,-10 31,48 -36,109 -100,173 -161,240 -219,311 -272,384 -322,460 -369,538 -411,619 -449,702 -482,786 -512,872 -537,959 -557,1048 -573,1137 -585,1228 -592,1318 -594,1409 -594,1409 -592,1500 -585,1590 -573,1681 -557,1770 -537,1859 -512,1946 -482,2032 -449,2116 -411,2199 -369,2280 -322,2358 -272,2434 -219,2507 -161,2578 -100,2645 -36,2709 31,2770 102,2828 175,2881 251,2931 329,2978 410,3020 493,3058 577,3091 663,3121 750,3146 839,3166 928,3182 1019,3194 1109,3201 1200,3203 1200,3203 1291,3201 1381,3194 1472,3182 1561,3166 1650,3146 1737,3121 1823,3091 1907,3058 1990,3020 2071,2978 2149,2931 2225,2881 2298,2828 2369,2770 2436,2709 2500,2645 2561,2578 2619,2507 2672,2434 2722,2358 2769,2280 2811,2199 2849,2116 2882,2032 2912,1946 2937,1859 2957,1770 2973,1681 2985,1590 2992,1500 2994,1409 Z M 2939,1409 L 2937,1321 2930,1233 2919,1146 2903,1059 2883,973 2859,888 2831,805 2798,723 2761,643 2720,565 2676,489 2627,416 2575,345 2519,276 2460,211 2398,149 2333,90 2264,34 2193,-18 2120,-67 2044,-111 1966,-152 1886,-189 1804,-222 1721,-250 1636,-274 1550,-294 1463,-310 1376,-321 1288,-328 1200,-330 1200,-330 1112,-328 1024,-321 937,-310 850,-294 764,-274 679,-250 596,-222 514,-189 434,-152 356,-111 280,-67 207,-18 136,34 67,90 2,149 -60,211 -119,276 -175,345 -227,416 -276,489 -320,565 -361,643 -398,723 -431,805 -459,888 -483,973 -503,1059 -519,1146 -530,1233 -537,1321 -539,1409 -539,1409 -537,1497 -530,1585 -519,1672 -503,1759 -483,1845 -459,1930 -431,2013 -398,2095 -361,2175 -320,2253 -276,2329 -227,2402 -175,2473 -119,2542 -60,2607 2,2669 67,2728 136,2784 207,2836 280,2885 356,2929 434,2970 514,3007 596,3040 679,3068 764,3092 850,3112 937,3128 1024,3139 1112,3146 1200,3148 1200,3148 1288,3146 1376,3139 1463,3128 1550,3112 1636,3092 1721,3068 1804,3040 1886,3007 1966,2970 2044,2929 2120,2885 2193,2836 2264,2784 2333,2728 2398,2669 2460,2607 2519,2542 2575,2473 2627,2402 2676,2329 2720,2253 2761,2175 2798,2095 2831,2013 2859,1930 2883,1845 2903,1759 2919,1672 2930,1585 2937,1497 2939,1409 Z"/>
              <path fill="rgb(191,227,76)" stroke="none" d="M 2939,1409 L 2937,1321 2930,1233 2919,1146 2903,1059 2883,973 2859,888 2831,805 2798,723 2761,643 2720,565 2676,489 2627,416 2575,345 2519,276 2460,211 2398,149 2333,90 2264,34 2193,-18 2120,-67 2044,-111 1966,-152 1886,-189 1804,-222 1721,-250 1636,-274 1550,-294 1463,-310 1376,-321 1288,-328 1200,-330 1200,-330 1112,-328 1024,-321 937,-310 850,-294 764,-274 679,-250 596,-222 514,-189 434,-152 356,-111 280,-67 207,-18 136,34 67,90 2,149 -60,211 -119,276 -175,345 -227,416 -276,489 -320,565 -361,643 -398,723 -431,805 -459,888 -483,973 -503,1059 -519,1146 -530,1233 -537,1321 -539,1409 -539,1409 -537,1497 -530,1585 -519,1672 -503,1759 -483,1845 -459,1930 -431,2013 -398,2095 -361,2175 -320,2253 -276,2329 -227,2402 -175,2473 -119,2542 -60,2607 2,2669 67,2728 136,2784 207,2836 280,2885 356,2929 434,2970 514,3007 596,3040 679,3068 764,3092 850,3112 937,3128 1024,3139 1112,3146 1200,3148 1200,3148 1288,3146 1376,3139 1463,3128 1550,3112 1636,3092 1721,3068 1804,3040 1886,3007 1966,2970 2044,2929 2120,2885 2193,2836 2264,2784 2333,2728 2398,2669 2460,2607 2519,2542 2575,2473 2627,2402 2676,2329 2720,2253 2761,2175 2798,2095 2831,2013 2859,1930 2883,1845 2903,1759 2919,1672 2930,1585 2937,1497 2939,1409 Z M 2885,1409 L 2883,1324 2876,1239 2866,1154 2851,1070 2831,987 2808,905 2780,824 2748,745 2713,667 2673,591 2630,518 2583,446 2532,378 2479,311 2421,248 2361,188 2298,130 2231,77 2163,26 2091,-21 2018,-64 1942,-104 1864,-139 1785,-171 1704,-199 1622,-222 1539,-242 1455,-257 1370,-267 1285,-274 1200,-276 1200,-276 1115,-274 1030,-267 945,-257 861,-242 778,-222 696,-199 615,-171 536,-139 458,-104 382,-64 309,-21 237,26 169,77 102,130 39,188 -21,248 -79,311 -132,378 -183,446 -230,518 -273,591 -313,667 -348,745 -380,824 -408,905 -431,987 -451,1070 -466,1154 -476,1239 -483,1324 -485,1409 -485,1409 -483,1494 -476,1579 -466,1664 -451,1748 -431,1831 -408,1913 -380,1994 -348,2073 -313,2151 -273,2227 -230,2300 -183,2372 -132,2440 -79,2507 -21,2570 39,2630 102,2688 169,2741 237,2792 309,2839 382,2882 458,2922 536,2957 615,2989 696,3017 778,3040 861,3060 945,3075 1030,3085 1115,3092 1200,3094 1200,3094 1285,3092 1370,3085 1455,3075 1539,3060 1622,3040 1704,3017 1785,2989 1864,2957 1942,2922 2018,2882 2091,2839 2163,2792 2231,2741 2298,2688 2361,2630 2421,2570 2479,2507 2532,2440 2583,2372 2630,2300 2673,2227 2713,2151 2748,2073 2780,1994 2808,1913 2831,1831 2851,1748 2866,1664 2876,1579 2883,1494 2885,1409 Z"/>
              <path fill="rgb(192,228,81)" stroke="none" d="M 2885,1409 L 2883,1324 2876,1239 2866,1154 2851,1070 2831,987 2808,905 2780,824 2748,745 2713,667 2673,591 2630,518 2583,446 2532,378 2479,311 2421,248 2361,188 2298,130 2231,77 2163,26 2091,-21 2018,-64 1942,-104 1864,-139 1785,-171 1704,-199 1622,-222 1539,-242 1455,-257 1370,-267 1285,-274 1200,-276 1200,-276 1115,-274 1030,-267 945,-257 861,-242 778,-222 696,-199 615,-171 536,-139 458,-104 382,-64 309,-21 237,26 169,77 102,130 39,188 -21,248 -79,311 -132,378 -183,446 -230,518 -273,591 -313,667 -348,745 -380,824 -408,905 -431,987 -451,1070 -466,1154 -476,1239 -483,1324 -485,1409 -485,1409 -483,1494 -476,1579 -466,1664 -451,1748 -431,1831 -408,1913 -380,1994 -348,2073 -313,2151 -273,2227 -230,2300 -183,2372 -132,2440 -79,2507 -21,2570 39,2630 102,2688 169,2741 237,2792 309,2839 382,2882 458,2922 536,2957 615,2989 696,3017 778,3040 861,3060 945,3075 1030,3085 1115,3092 1200,3094 1200,3094 1285,3092 1370,3085 1455,3075 1539,3060 1622,3040 1704,3017 1785,2989 1864,2957 1942,2922 2018,2882 2091,2839 2163,2792 2231,2741 2298,2688 2361,2630 2421,2570 2479,2507 2532,2440 2583,2372 2630,2300 2673,2227 2713,2151 2748,2073 2780,1994 2808,1913 2831,1831 2851,1748 2866,1664 2876,1579 2883,1494 2885,1409 Z M 2831,1409 L 2829,1326 2823,1244 2812,1162 2798,1081 2779,1000 2756,921 2729,843 2699,766 2664,691 2626,617 2584,546 2539,477 2490,411 2438,347 2382,285 2324,227 2262,171 2198,119 2132,70 2063,25 1992,-17 1918,-55 1843,-90 1766,-120 1688,-147 1609,-170 1528,-189 1447,-203 1365,-214 1283,-220 1200,-222 1200,-222 1117,-220 1035,-214 953,-203 872,-189 791,-170 712,-147 634,-120 557,-90 482,-55 408,-17 337,25 268,70 202,119 138,171 76,227 18,285 -38,347 -90,411 -139,477 -184,546 -226,617 -264,691 -299,766 -329,843 -356,921 -379,1000 -398,1081 -412,1162 -423,1244 -429,1326 -431,1409 -431,1409 -429,1492 -423,1574 -412,1656 -398,1737 -379,1818 -356,1897 -329,1975 -299,2052 -264,2127 -226,2201 -184,2272 -139,2341 -90,2407 -38,2471 18,2533 76,2591 138,2647 202,2699 268,2748 337,2793 408,2835 482,2873 557,2908 634,2938 712,2965 791,2988 872,3007 953,3021 1035,3032 1117,3038 1200,3040 1200,3040 1283,3038 1365,3032 1447,3021 1528,3007 1609,2988 1688,2965 1766,2938 1843,2908 1918,2873 1992,2835 2063,2793 2132,2748 2198,2699 2262,2647 2324,2591 2382,2533 2438,2471 2490,2407 2539,2341 2584,2272 2626,2201 2664,2127 2699,2052 2729,1975 2756,1897 2779,1818 2798,1737 2812,1656 2823,1574 2829,1492 2831,1409 Z"/>
              <path fill="rgb(194,228,86)" stroke="none" d="M 2831,1409 L 2829,1326 2823,1244 2812,1162 2798,1081 2779,1000 2756,921 2729,843 2699,766 2664,691 2626,617 2584,546 2539,477 2490,411 2438,347 2382,285 2324,227 2262,171 2198,119 2132,70 2063,25 1992,-17 1918,-55 1843,-90 1766,-120 1688,-147 1609,-170 1528,-189 1447,-203 1365,-214 1283,-220 1200,-222 1200,-222 1117,-220 1035,-214 953,-203 872,-189 791,-170 712,-147 634,-120 557,-90 482,-55 408,-17 337,25 268,70 202,119 138,171 76,227 18,285 -38,347 -90,411 -139,477 -184,546 -226,617 -264,691 -299,766 -329,843 -356,921 -379,1000 -398,1081 -412,1162 -423,1244 -429,1326 -431,1409 -431,1409 -429,1492 -423,1574 -412,1656 -398,1737 -379,1818 -356,1897 -329,1975 -299,2052 -264,2127 -226,2201 -184,2272 -139,2341 -90,2407 -38,2471 18,2533 76,2591 138,2647 202,2699 268,2748 337,2793 408,2835 482,2873 557,2908 634,2938 712,2965 791,2988 872,3007 953,3021 1035,3032 1117,3038 1200,3040 1200,3040 1283,3038 1365,3032 1447,3021 1528,3007 1609,2988 1688,2965 1766,2938 1843,2908 1918,2873 1992,2835 2063,2793 2132,2748 2198,2699 2262,2647 2324,2591 2382,2533 2438,2471 2490,2407 2539,2341 2584,2272 2626,2201 2664,2127 2699,2052 2729,1975 2756,1897 2779,1818 2798,1737 2812,1656 2823,1574 2829,1492 2831,1409 Z M 2776,1409 L 2774,1329 2768,1250 2758,1170 2744,1092 2726,1014 2704,937 2678,862 2648,787 2615,715 2578,644 2537,575 2494,509 2446,444 2396,382 2342,323 2286,267 2227,213 2165,163 2100,115 2034,72 1965,31 1894,-6 1822,-39 1747,-69 1672,-95 1595,-117 1517,-135 1439,-149 1359,-159 1280,-165 1200,-167 1200,-167 1120,-165 1041,-159 961,-149 883,-135 805,-117 728,-95 653,-69 578,-39 506,-6 435,31 366,72 300,115 235,163 173,213 114,267 58,323 4,382 -46,444 -94,509 -137,575 -178,644 -215,715 -248,787 -278,862 -304,937 -326,1014 -344,1092 -358,1170 -368,1250 -374,1329 -376,1409 -376,1409 -374,1489 -368,1568 -358,1648 -344,1726 -326,1804 -304,1881 -278,1956 -248,2031 -215,2103 -178,2174 -137,2243 -94,2309 -46,2374 4,2436 58,2495 114,2551 173,2605 235,2655 300,2703 366,2746 435,2787 506,2824 578,2857 653,2887 728,2913 805,2935 883,2953 961,2967 1041,2977 1120,2983 1200,2985 1200,2985 1280,2983 1359,2977 1439,2967 1517,2953 1595,2935 1672,2913 1747,2887 1822,2857 1894,2824 1965,2787 2034,2746 2100,2703 2165,2655 2227,2605 2286,2551 2342,2495 2396,2436 2446,2374 2494,2309 2537,2243 2578,2174 2615,2103 2648,2031 2678,1956 2704,1881 2726,1804 2744,1726 2758,1648 2768,1568 2774,1489 2776,1409 Z"/>
              <path fill="rgb(195,228,91)" stroke="none" d="M 2776,1409 L 2774,1329 2768,1250 2758,1170 2744,1092 2726,1014 2704,937 2678,862 2648,787 2615,715 2578,644 2537,575 2494,509 2446,444 2396,382 2342,323 2286,267 2227,213 2165,163 2100,115 2034,72 1965,31 1894,-6 1822,-39 1747,-69 1672,-95 1595,-117 1517,-135 1439,-149 1359,-159 1280,-165 1200,-167 1200,-167 1120,-165 1041,-159 961,-149 883,-135 805,-117 728,-95 653,-69 578,-39 506,-6 435,31 366,72 300,115 235,163 173,213 114,267 58,323 4,382 -46,444 -94,509 -137,575 -178,644 -215,715 -248,787 -278,862 -304,937 -326,1014 -344,1092 -358,1170 -368,1250 -374,1329 -376,1409 -376,1409 -374,1489 -368,1568 -358,1648 -344,1726 -326,1804 -304,1881 -278,1956 -248,2031 -215,2103 -178,2174 -137,2243 -94,2309 -46,2374 4,2436 58,2495 114,2551 173,2605 235,2655 300,2703 366,2746 435,2787 506,2824 578,2857 653,2887 728,2913 805,2935 883,2953 961,2967 1041,2977 1120,2983 1200,2985 1200,2985 1280,2983 1359,2977 1439,2967 1517,2953 1595,2935 1672,2913 1747,2887 1822,2857 1894,2824 1965,2787 2034,2746 2100,2703 2165,2655 2227,2605 2286,2551 2342,2495 2396,2436 2446,2374 2494,2309 2537,2243 2578,2174 2615,2103 2648,2031 2678,1956 2704,1881 2726,1804 2744,1726 2758,1648 2768,1568 2774,1489 2776,1409 Z M 2722,1409 L 2720,1332 2714,1255 2704,1179 2691,1103 2673,1028 2652,953 2627,880 2599,809 2566,739 2531,670 2492,604 2449,540 2404,477 2355,418 2303,360 2249,306 2191,254 2132,205 2069,160 2005,117 1939,78 1870,43 1800,10 1729,-18 1656,-43 1581,-64 1506,-82 1430,-95 1354,-105 1277,-111 1200,-113 1200,-113 1123,-111 1046,-105 970,-95 894,-82 819,-64 744,-43 671,-18 600,10 530,43 461,78 395,117 331,160 268,205 209,254 151,306 97,360 45,418 -4,477 -49,540 -92,604 -131,670 -166,739 -199,809 -227,880 -252,953 -273,1028 -291,1103 -304,1179 -314,1255 -320,1332 -322,1409 -322,1409 -320,1486 -314,1563 -304,1639 -291,1715 -273,1790 -252,1865 -227,1938 -199,2009 -166,2079 -131,2148 -92,2214 -49,2278 -4,2341 45,2400 97,2458 151,2512 209,2564 268,2613 331,2658 395,2701 461,2740 530,2775 600,2808 671,2836 744,2861 819,2882 894,2900 970,2913 1046,2923 1123,2929 1200,2931 1200,2931 1277,2929 1354,2923 1430,2913 1506,2900 1581,2882 1656,2861 1729,2836 1800,2808 1870,2775 1939,2740 2005,2701 2069,2658 2132,2613 2191,2564 2249,2512 2303,2458 2355,2400 2404,2341 2449,2278 2492,2214 2531,2148 2566,2079 2599,2009 2627,1938 2652,1865 2673,1790 2691,1715 2704,1639 2714,1563 2720,1486 2722,1409 Z"/>
              <path fill="rgb(197,229,96)" stroke="none" d="M 2722,1409 L 2720,1332 2714,1255 2704,1179 2691,1103 2673,1028 2652,953 2627,880 2599,809 2566,739 2531,670 2492,604 2449,540 2404,477 2355,418 2303,360 2249,306 2191,254 2132,205 2069,160 2005,117 1939,78 1870,43 1800,10 1729,-18 1656,-43 1581,-64 1506,-82 1430,-95 1354,-105 1277,-111 1200,-113 1200,-113 1123,-111 1046,-105 970,-95 894,-82 819,-64 744,-43 671,-18 600,10 530,43 461,78 395,117 331,160 268,205 209,254 151,306 97,360 45,418 -4,477 -49,540 -92,604 -131,670 -166,739 -199,809 -227,880 -252,953 -273,1028 -291,1103 -304,1179 -314,1255 -320,1332 -322,1409 -322,1409 -320,1486 -314,1563 -304,1639 -291,1715 -273,1790 -252,1865 -227,1938 -199,2009 -166,2079 -131,2148 -92,2214 -49,2278 -4,2341 45,2400 97,2458 151,2512 209,2564 268,2613 331,2658 395,2701 461,2740 530,2775 600,2808 671,2836 744,2861 819,2882 894,2900 970,2913 1046,2923 1123,2929 1200,2931 1200,2931 1277,2929 1354,2923 1430,2913 1506,2900 1581,2882 1656,2861 1729,2836 1800,2808 1870,2775 1939,2740 2005,2701 2069,2658 2132,2613 2191,2564 2249,2512 2303,2458 2355,2400 2404,2341 2449,2278 2492,2214 2531,2148 2566,2079 2599,2009 2627,1938 2652,1865 2673,1790 2691,1715 2704,1639 2714,1563 2720,1486 2722,1409 Z M 2667,1409 L 2665,1335 2659,1261 2650,1187 2637,1114 2620,1041 2600,970 2576,900 2548,830 2517,763 2483,697 2445,633 2404,571 2360,511 2313,453 2263,398 2211,346 2156,296 2098,249 2038,205 1976,164 1912,126 1846,92 1779,61 1709,33 1639,9 1568,-11 1495,-28 1422,-41 1348,-50 1274,-56 1200,-58 1200,-58 1126,-56 1052,-50 978,-41 905,-28 832,-11 761,9 691,33 621,61 554,92 488,126 424,164 362,205 302,249 244,296 189,346 137,398 87,453 40,511 -4,571 -45,633 -83,697 -117,763 -148,830 -176,900 -200,970 -220,1041 -237,1114 -250,1187 -259,1261 -265,1335 -267,1409 -267,1409 -265,1483 -259,1557 -250,1631 -237,1704 -220,1777 -200,1848 -176,1918 -148,1988 -117,2055 -83,2121 -45,2185 -4,2247 40,2307 87,2365 137,2420 189,2472 244,2522 302,2569 362,2613 424,2654 488,2692 554,2726 621,2757 691,2785 761,2809 832,2829 905,2846 978,2859 1052,2868 1126,2874 1200,2876 1200,2876 1274,2874 1348,2868 1422,2859 1495,2846 1568,2829 1639,2809 1709,2785 1779,2757 1846,2726 1912,2692 1976,2654 2038,2613 2098,2569 2156,2522 2211,2472 2263,2420 2313,2365 2360,2307 2404,2247 2445,2185 2483,2121 2517,2055 2548,1988 2576,1918 2600,1848 2620,1777 2637,1704 2650,1631 2659,1557 2665,1483 2667,1409 Z"/>
              <path fill="rgb(198,229,101)" stroke="none" d="M 2667,1409 L 2665,1335 2659,1261 2650,1187 2637,1114 2620,1041 2600,970 2576,900 2548,830 2517,763 2483,697 2445,633 2404,571 2360,511 2313,453 2263,398 2211,346 2156,296 2098,249 2038,205 1976,164 1912,126 1846,92 1779,61 1709,33 1639,9 1568,-11 1495,-28 1422,-41 1348,-50 1274,-56 1200,-58 1200,-58 1126,-56 1052,-50 978,-41 905,-28 832,-11 761,9 691,33 621,61 554,92 488,126 424,164 362,205 302,249 244,296 189,346 137,398 87,453 40,511 -4,571 -45,633 -83,697 -117,763 -148,830 -176,900 -200,970 -220,1041 -237,1114 -250,1187 -259,1261 -265,1335 -267,1409 -267,1409 -265,1483 -259,1557 -250,1631 -237,1704 -220,1777 -200,1848 -176,1918 -148,1988 -117,2055 -83,2121 -45,2185 -4,2247 40,2307 87,2365 137,2420 189,2472 244,2522 302,2569 362,2613 424,2654 488,2692 554,2726 621,2757 691,2785 761,2809 832,2829 905,2846 978,2859 1052,2868 1126,2874 1200,2876 1200,2876 1274,2874 1348,2868 1422,2859 1495,2846 1568,2829 1639,2809 1709,2785 1779,2757 1846,2726 1912,2692 1976,2654 2038,2613 2098,2569 2156,2522 2211,2472 2263,2420 2313,2365 2360,2307 2404,2247 2445,2185 2483,2121 2517,2055 2548,1988 2576,1918 2600,1848 2620,1777 2637,1704 2650,1631 2659,1557 2665,1483 2667,1409 Z M 2613,1409 L 2611,1337 2606,1266 2597,1195 2584,1125 2568,1055 2548,986 2525,918 2498,852 2469,787 2435,723 2399,662 2360,602 2317,544 2272,489 2224,435 2174,385 2120,337 2065,292 2007,249 1947,210 1886,174 1822,140 1757,111 1691,84 1623,61 1554,41 1484,25 1414,12 1343,3 1272,-2 1200,-4 1200,-4 1128,-2 1057,3 986,12 916,25 846,41 777,61 709,84 643,111 578,140 514,174 453,210 393,249 335,292 280,337 226,385 176,435 128,489 83,544 40,602 1,662 -35,723 -69,787 -98,852 -125,918 -148,986 -168,1055 -184,1125 -197,1195 -206,1266 -211,1337 -213,1409 -213,1409 -211,1481 -206,1552 -197,1623 -184,1693 -168,1763 -148,1832 -125,1900 -98,1966 -69,2031 -35,2095 1,2156 40,2216 83,2274 128,2329 176,2383 226,2433 280,2481 335,2526 393,2569 453,2608 514,2644 578,2678 643,2707 709,2734 777,2757 846,2777 916,2793 986,2806 1057,2815 1128,2820 1200,2822 1200,2822 1272,2820 1343,2815 1414,2806 1484,2793 1554,2777 1623,2757 1691,2734 1757,2707 1822,2678 1886,2644 1947,2608 2007,2569 2065,2526 2120,2481 2174,2433 2224,2383 2272,2329 2317,2274 2360,2216 2399,2156 2435,2095 2469,2031 2498,1966 2525,1900 2548,1832 2568,1763 2584,1693 2597,1623 2606,1552 2611,1481 2613,1409 Z"/>
              <path fill="rgb(200,229,106)" stroke="none" d="M 2613,1409 L 2611,1337 2606,1266 2597,1195 2584,1125 2568,1055 2548,986 2525,918 2498,852 2469,787 2435,723 2399,662 2360,602 2317,544 2272,489 2224,435 2174,385 2120,337 2065,292 2007,249 1947,210 1886,174 1822,140 1757,111 1691,84 1623,61 1554,41 1484,25 1414,12 1343,3 1272,-2 1200,-4 1200,-4 1128,-2 1057,3 986,12 916,25 846,41 777,61 709,84 643,111 578,140 514,174 453,210 393,249 335,292 280,337 226,385 176,435 128,489 83,544 40,602 1,662 -35,723 -69,787 -98,852 -125,918 -148,986 -168,1055 -184,1125 -197,1195 -206,1266 -211,1337 -213,1409 -213,1409 -211,1481 -206,1552 -197,1623 -184,1693 -168,1763 -148,1832 -125,1900 -98,1966 -69,2031 -35,2095 1,2156 40,2216 83,2274 128,2329 176,2383 226,2433 280,2481 335,2526 393,2569 453,2608 514,2644 578,2678 643,2707 709,2734 777,2757 846,2777 916,2793 986,2806 1057,2815 1128,2820 1200,2822 1200,2822 1272,2820 1343,2815 1414,2806 1484,2793 1554,2777 1623,2757 1691,2734 1757,2707 1822,2678 1886,2644 1947,2608 2007,2569 2065,2526 2120,2481 2174,2433 2224,2383 2272,2329 2317,2274 2360,2216 2399,2156 2435,2095 2469,2031 2498,1966 2525,1900 2548,1832 2568,1763 2584,1693 2597,1623 2606,1552 2611,1481 2613,1409 Z M 2559,1409 L 2557,1340 2552,1272 2543,1203 2531,1135 2516,1068 2497,1002 2474,937 2449,873 2420,811 2388,749 2353,690 2315,633 2275,577 2231,524 2185,473 2136,424 2085,378 2032,334 1976,294 1919,256 1860,221 1798,189 1736,160 1672,135 1607,112 1541,93 1474,78 1406,66 1337,57 1269,52 1200,50 1200,50 1131,52 1063,57 994,66 926,78 859,93 793,112 728,135 664,160 602,189 540,221 481,256 424,294 368,334 315,378 264,424 215,473 169,524 125,577 85,633 47,690 12,749 -20,811 -49,873 -74,937 -97,1002 -116,1068 -131,1135 -143,1203 -152,1272 -157,1340 -159,1409 -159,1409 -157,1478 -152,1546 -143,1615 -131,1683 -116,1750 -97,1816 -74,1881 -49,1945 -20,2007 12,2069 47,2128 85,2185 125,2241 169,2294 215,2345 264,2394 315,2440 368,2484 424,2524 481,2562 540,2597 602,2629 664,2658 728,2683 793,2706 859,2725 926,2740 994,2752 1063,2761 1131,2766 1200,2768 1200,2768 1269,2766 1337,2761 1406,2752 1474,2740 1541,2725 1607,2706 1672,2683 1736,2658 1798,2629 1860,2597 1919,2562 1976,2524 2032,2484 2085,2440 2136,2394 2185,2345 2231,2294 2275,2241 2315,2185 2353,2128 2388,2069 2420,2007 2449,1945 2474,1881 2497,1816 2516,1750 2531,1683 2543,1615 2552,1546 2557,1478 2559,1409 Z"/>
              <path fill="rgb(201,230,111)" stroke="none" d="M 2559,1409 L 2557,1340 2552,1272 2543,1203 2531,1135 2516,1068 2497,1002 2474,937 2449,873 2420,811 2388,749 2353,690 2315,633 2275,577 2231,524 2185,473 2136,424 2085,378 2032,334 1976,294 1919,256 1860,221 1798,189 1736,160 1672,135 1607,112 1541,93 1474,78 1406,66 1337,57 1269,52 1200,50 1200,50 1131,52 1063,57 994,66 926,78 859,93 793,112 728,135 664,160 602,189 540,221 481,256 424,294 368,334 315,378 264,424 215,473 169,524 125,577 85,633 47,690 12,749 -20,811 -49,873 -74,937 -97,1002 -116,1068 -131,1135 -143,1203 -152,1272 -157,1340 -159,1409 -159,1409 -157,1478 -152,1546 -143,1615 -131,1683 -116,1750 -97,1816 -74,1881 -49,1945 -20,2007 12,2069 47,2128 85,2185 125,2241 169,2294 215,2345 264,2394 315,2440 368,2484 424,2524 481,2562 540,2597 602,2629 664,2658 728,2683 793,2706 859,2725 926,2740 994,2752 1063,2761 1131,2766 1200,2768 1200,2768 1269,2766 1337,2761 1406,2752 1474,2740 1541,2725 1607,2706 1672,2683 1736,2658 1798,2629 1860,2597 1919,2562 1976,2524 2032,2484 2085,2440 2136,2394 2185,2345 2231,2294 2275,2241 2315,2185 2353,2128 2388,2069 2420,2007 2449,1945 2474,1881 2497,1816 2516,1750 2531,1683 2543,1615 2552,1546 2557,1478 2559,1409 Z M 2504,1408 L 2502,1342 2497,1276 2489,1210 2477,1145 2462,1081 2444,1017 2423,955 2398,893 2371,833 2340,775 2307,718 2270,662 2231,609 2189,558 2145,509 2098,462 2049,418 1998,376 1945,337 1890,301 1833,267 1774,236 1714,209 1653,184 1590,163 1527,145 1462,130 1397,118 1332,110 1266,105 1200,103 1200,103 1134,105 1068,110 1003,118 938,130 873,145 810,163 747,184 686,209 626,236 567,267 510,301 455,337 402,376 351,418 302,462 255,509 211,558 169,609 130,662 93,718 60,775 29,833 2,893 -23,955 -44,1017 -62,1081 -77,1145 -89,1210 -97,1276 -102,1342 -104,1408 -104,1408 -102,1474 -97,1540 -89,1606 -77,1671 -62,1735 -44,1799 -23,1861 2,1923 29,1983 60,2041 93,2098 130,2154 169,2207 211,2258 255,2307 302,2354 351,2398 402,2440 455,2479 510,2515 567,2549 626,2580 686,2607 747,2632 810,2653 873,2671 938,2686 1003,2698 1068,2706 1134,2711 1200,2713 1200,2713 1266,2711 1332,2706 1397,2698 1462,2686 1527,2671 1590,2653 1653,2632 1714,2607 1774,2580 1833,2549 1890,2515 1945,2479 1998,2440 2049,2398 2098,2354 2145,2307 2189,2258 2231,2207 2270,2154 2307,2098 2340,2041 2371,1983 2398,1923 2423,1861 2444,1799 2462,1735 2477,1671 2489,1606 2497,1540 2502,1474 2504,1408 Z"/>
              <path fill="rgb(203,230,116)" stroke="none" d="M 2504,1408 L 2502,1342 2497,1276 2489,1210 2477,1145 2462,1081 2444,1017 2423,955 2398,893 2371,833 2340,775 2307,718 2270,662 2231,609 2189,558 2145,509 2098,462 2049,418 1998,376 1945,337 1890,301 1833,267 1774,236 1714,209 1653,184 1590,163 1527,145 1462,130 1397,118 1332,110 1266,105 1200,103 1200,103 1134,105 1068,110 1003,118 938,130 873,145 810,163 747,184 686,209 626,236 567,267 510,301 455,337 402,376 351,418 302,462 255,509 211,558 169,609 130,662 93,718 60,775 29,833 2,893 -23,955 -44,1017 -62,1081 -77,1145 -89,1210 -97,1276 -102,1342 -104,1408 -104,1408 -102,1474 -97,1540 -89,1606 -77,1671 -62,1735 -44,1799 -23,1861 2,1923 29,1983 60,2041 93,2098 130,2154 169,2207 211,2258 255,2307 302,2354 351,2398 402,2440 455,2479 510,2515 567,2549 626,2580 686,2607 747,2632 810,2653 873,2671 938,2686 1003,2698 1068,2706 1134,2711 1200,2713 1200,2713 1266,2711 1332,2706 1397,2698 1462,2686 1527,2671 1590,2653 1653,2632 1714,2607 1774,2580 1833,2549 1890,2515 1945,2479 1998,2440 2049,2398 2098,2354 2145,2307 2189,2258 2231,2207 2270,2154 2307,2098 2340,2041 2371,1983 2398,1923 2423,1861 2444,1799 2462,1735 2477,1671 2489,1606 2497,1540 2502,1474 2504,1408 Z M 2450,1408 L 2448,1345 2444,1281 2436,1219 2424,1156 2410,1094 2393,1033 2372,974 2349,915 2322,857 2293,801 2261,746 2226,693 2188,642 2148,593 2106,546 2061,501 2014,459 1965,419 1914,381 1861,346 1807,314 1750,285 1693,258 1634,235 1574,214 1513,197 1452,183 1389,171 1326,163 1263,159 1200,157 1200,157 1137,159 1074,163 1011,171 948,183 887,197 826,214 766,235 707,258 650,285 593,314 539,346 486,381 435,419 386,459 339,501 294,546 252,593 212,642 174,693 139,746 107,801 78,857 51,915 28,974 7,1033 -10,1094 -24,1156 -36,1219 -44,1281 -48,1345 -50,1408 -50,1408 -48,1471 -44,1535 -36,1597 -24,1660 -10,1722 7,1783 28,1842 51,1901 78,1959 107,2015 139,2070 174,2123 212,2174 252,2223 294,2270 339,2315 386,2357 435,2397 486,2435 539,2470 593,2502 650,2531 707,2558 766,2581 826,2602 887,2619 948,2633 1011,2645 1074,2653 1137,2657 1200,2659 1200,2659 1263,2657 1326,2653 1389,2645 1452,2633 1513,2619 1574,2602 1634,2581 1693,2558 1750,2531 1807,2502 1861,2470 1914,2435 1965,2397 2014,2357 2061,2315 2106,2270 2148,2223 2188,2174 2226,2123 2261,2070 2293,2015 2322,1959 2349,1901 2372,1842 2393,1783 2410,1722 2424,1660 2436,1597 2444,1535 2448,1471 2450,1408 Z"/>
              <path fill="rgb(204,230,121)" stroke="none" d="M 2450,1408 L 2448,1345 2444,1281 2436,1219 2424,1156 2410,1094 2393,1033 2372,974 2349,915 2322,857 2293,801 2261,746 2226,693 2188,642 2148,593 2106,546 2061,501 2014,459 1965,419 1914,381 1861,346 1807,314 1750,285 1693,258 1634,235 1574,214 1513,197 1452,183 1389,171 1326,163 1263,159 1200,157 1200,157 1137,159 1074,163 1011,171 948,183 887,197 826,214 766,235 707,258 650,285 593,314 539,346 486,381 435,419 386,459 339,501 294,546 252,593 212,642 174,693 139,746 107,801 78,857 51,915 28,974 7,1033 -10,1094 -24,1156 -36,1219 -44,1281 -48,1345 -50,1408 -50,1408 -48,1471 -44,1535 -36,1597 -24,1660 -10,1722 7,1783 28,1842 51,1901 78,1959 107,2015 139,2070 174,2123 212,2174 252,2223 294,2270 339,2315 386,2357 435,2397 486,2435 539,2470 593,2502 650,2531 707,2558 766,2581 826,2602 887,2619 948,2633 1011,2645 1074,2653 1137,2657 1200,2659 1200,2659 1263,2657 1326,2653 1389,2645 1452,2633 1513,2619 1574,2602 1634,2581 1693,2558 1750,2531 1807,2502 1861,2470 1914,2435 1965,2397 2014,2357 2061,2315 2106,2270 2148,2223 2188,2174 2226,2123 2261,2070 2293,2015 2322,1959 2349,1901 2372,1842 2393,1783 2410,1722 2424,1660 2436,1597 2444,1535 2448,1471 2450,1408 Z M 2395,1408 L 2393,1347 2389,1287 2381,1227 2371,1167 2357,1108 2340,1050 2321,993 2298,936 2273,881 2245,828 2214,775 2181,725 2145,676 2107,629 2066,584 2023,541 1978,501 1931,462 1883,426 1832,393 1780,362 1726,334 1671,309 1615,286 1558,267 1500,250 1441,236 1381,226 1321,218 1261,214 1200,212 1200,212 1139,214 1079,218 1019,226 959,236 900,250 842,267 785,286 729,309 674,334 620,362 568,393 517,426 469,462 422,501 377,541 334,584 293,629 255,676 219,725 186,775 155,828 127,881 102,936 79,993 60,1050 43,1108 29,1167 19,1227 11,1287 7,1347 5,1408 5,1408 7,1469 11,1529 19,1589 29,1649 43,1708 60,1766 79,1823 102,1880 127,1935 155,1988 186,2041 219,2091 255,2140 293,2187 334,2232 377,2275 422,2315 469,2354 517,2390 568,2423 620,2454 674,2482 729,2507 785,2530 842,2549 900,2566 959,2580 1019,2590 1079,2598 1139,2602 1200,2604 1200,2604 1261,2602 1321,2598 1381,2590 1441,2580 1500,2566 1558,2549 1615,2530 1671,2507 1726,2482 1780,2454 1832,2423 1883,2390 1931,2354 1978,2315 2023,2275 2066,2232 2107,2187 2145,2140 2181,2091 2214,2041 2245,1988 2273,1935 2298,1880 2321,1823 2340,1766 2357,1708 2371,1649 2381,1589 2389,1529 2393,1469 2395,1408 Z"/>
              <path fill="rgb(205,231,126)" stroke="none" d="M 2395,1408 L 2393,1347 2389,1287 2381,1227 2371,1167 2357,1108 2340,1050 2321,993 2298,936 2273,881 2245,828 2214,775 2181,725 2145,676 2107,629 2066,584 2023,541 1978,501 1931,462 1883,426 1832,393 1780,362 1726,334 1671,309 1615,286 1558,267 1500,250 1441,236 1381,226 1321,218 1261,214 1200,212 1200,212 1139,214 1079,218 1019,226 959,236 900,250 842,267 785,286 729,309 674,334 620,362 568,393 517,426 469,462 422,501 377,541 334,584 293,629 255,676 219,725 186,775 155,828 127,881 102,936 79,993 60,1050 43,1108 29,1167 19,1227 11,1287 7,1347 5,1408 5,1408 7,1469 11,1529 19,1589 29,1649 43,1708 60,1766 79,1823 102,1880 127,1935 155,1988 186,2041 219,2091 255,2140 293,2187 334,2232 377,2275 422,2315 469,2354 517,2390 568,2423 620,2454 674,2482 729,2507 785,2530 842,2549 900,2566 959,2580 1019,2590 1079,2598 1139,2602 1200,2604 1200,2604 1261,2602 1321,2598 1381,2590 1441,2580 1500,2566 1558,2549 1615,2530 1671,2507 1726,2482 1780,2454 1832,2423 1883,2390 1931,2354 1978,2315 2023,2275 2066,2232 2107,2187 2145,2140 2181,2091 2214,2041 2245,1988 2273,1935 2298,1880 2321,1823 2340,1766 2357,1708 2371,1649 2381,1589 2389,1529 2393,1469 2395,1408 Z M 2341,1408 L 2340,1350 2335,1292 2328,1235 2318,1178 2305,1122 2289,1066 2270,1011 2248,958 2224,905 2198,854 2168,804 2136,756 2102,709 2066,664 2027,621 1986,580 1943,541 1898,505 1851,471 1803,439 1753,409 1702,383 1649,359 1596,337 1541,318 1485,302 1429,289 1372,279 1315,272 1257,267 1199,266 1199,266 1141,267 1083,272 1026,279 969,289 913,302 857,318 802,337 749,359 696,383 645,409 595,439 547,471 500,505 455,541 412,580 371,621 332,664 296,709 262,756 230,804 200,854 174,905 150,958 128,1011 109,1066 93,1122 80,1178 70,1235 63,1292 58,1350 57,1408 57,1408 58,1466 63,1524 70,1581 80,1638 93,1694 109,1750 128,1805 150,1858 174,1911 200,1962 230,2012 262,2060 296,2107 332,2152 371,2195 412,2236 455,2275 500,2311 547,2345 595,2377 645,2407 696,2433 749,2457 802,2479 857,2498 913,2514 969,2527 1026,2537 1083,2544 1141,2549 1199,2550 1199,2550 1257,2549 1315,2544 1372,2537 1429,2527 1485,2514 1541,2498 1596,2479 1649,2457 1702,2433 1753,2407 1803,2377 1851,2345 1898,2311 1943,2275 1986,2236 2027,2195 2066,2152 2102,2107 2136,2060 2168,2012 2198,1962 2224,1911 2248,1858 2270,1805 2289,1750 2305,1694 2318,1638 2328,1581 2335,1524 2340,1466 2341,1408 Z"/>
              <path fill="rgb(207,231,131)" stroke="none" d="M 2341,1408 L 2340,1350 2335,1292 2328,1235 2318,1178 2305,1122 2289,1066 2270,1011 2248,958 2224,905 2198,854 2168,804 2136,756 2102,709 2066,664 2027,621 1986,580 1943,541 1898,505 1851,471 1803,439 1753,409 1702,383 1649,359 1596,337 1541,318 1485,302 1429,289 1372,279 1315,272 1257,267 1199,266 1199,266 1141,267 1083,272 1026,279 969,289 913,302 857,318 802,337 749,359 696,383 645,409 595,439 547,471 500,505 455,541 412,580 371,621 332,664 296,709 262,756 230,804 200,854 174,905 150,958 128,1011 109,1066 93,1122 80,1178 70,1235 63,1292 58,1350 57,1408 57,1408 58,1466 63,1524 70,1581 80,1638 93,1694 109,1750 128,1805 150,1858 174,1911 200,1962 230,2012 262,2060 296,2107 332,2152 371,2195 412,2236 455,2275 500,2311 547,2345 595,2377 645,2407 696,2433 749,2457 802,2479 857,2498 913,2514 969,2527 1026,2537 1083,2544 1141,2549 1199,2550 1199,2550 1257,2549 1315,2544 1372,2537 1429,2527 1485,2514 1541,2498 1596,2479 1649,2457 1702,2433 1753,2407 1803,2377 1851,2345 1898,2311 1943,2275 1986,2236 2027,2195 2066,2152 2102,2107 2136,2060 2168,2012 2198,1962 2224,1911 2248,1858 2270,1805 2289,1750 2305,1694 2318,1638 2328,1581 2335,1524 2340,1466 2341,1408 Z M 2287,1408 L 2286,1353 2281,1298 2274,1243 2265,1189 2252,1135 2237,1082 2219,1030 2199,979 2176,929 2150,880 2122,832 2092,786 2059,742 2025,699 1988,658 1949,619 1908,582 1865,548 1821,515 1775,485 1727,457 1678,431 1628,408 1577,388 1525,370 1472,355 1418,342 1364,333 1309,326 1254,321 1199,320 1199,320 1144,321 1089,326 1034,333 980,342 926,355 873,370 821,388 770,408 720,431 671,457 623,485 577,515 533,548 490,582 449,619 410,658 373,699 339,742 306,786 276,832 248,880 222,929 199,979 179,1030 161,1082 146,1135 133,1189 124,1243 117,1298 112,1353 111,1408 111,1408 112,1463 117,1518 124,1573 133,1627 146,1681 161,1734 179,1786 199,1837 222,1887 248,1936 276,1984 306,2030 339,2074 373,2117 410,2158 449,2197 490,2234 533,2268 577,2301 623,2331 671,2359 720,2385 770,2408 821,2428 873,2446 926,2461 980,2474 1034,2483 1089,2490 1144,2495 1199,2496 1199,2496 1254,2495 1309,2490 1364,2483 1418,2474 1472,2461 1525,2446 1577,2428 1628,2408 1678,2385 1727,2359 1775,2331 1821,2301 1865,2268 1908,2234 1949,2197 1988,2158 2025,2117 2059,2074 2092,2030 2122,1984 2150,1936 2176,1887 2199,1837 2219,1786 2237,1734 2252,1681 2265,1627 2274,1573 2281,1518 2286,1463 2287,1408 Z"/>
              <path fill="rgb(208,231,136)" stroke="none" d="M 2287,1408 L 2286,1353 2281,1298 2274,1243 2265,1189 2252,1135 2237,1082 2219,1030 2199,979 2176,929 2150,880 2122,832 2092,786 2059,742 2025,699 1988,658 1949,619 1908,582 1865,548 1821,515 1775,485 1727,457 1678,431 1628,408 1577,388 1525,370 1472,355 1418,342 1364,333 1309,326 1254,321 1199,320 1199,320 1144,321 1089,326 1034,333 980,342 926,355 873,370 821,388 770,408 720,431 671,457 623,485 577,515 533,548 490,582 449,619 410,658 373,699 339,742 306,786 276,832 248,880 222,929 199,979 179,1030 161,1082 146,1135 133,1189 124,1243 117,1298 112,1353 111,1408 111,1408 112,1463 117,1518 124,1573 133,1627 146,1681 161,1734 179,1786 199,1837 222,1887 248,1936 276,1984 306,2030 339,2074 373,2117 410,2158 449,2197 490,2234 533,2268 577,2301 623,2331 671,2359 720,2385 770,2408 821,2428 873,2446 926,2461 980,2474 1034,2483 1089,2490 1144,2495 1199,2496 1199,2496 1254,2495 1309,2490 1364,2483 1418,2474 1472,2461 1525,2446 1577,2428 1628,2408 1678,2385 1727,2359 1775,2331 1821,2301 1865,2268 1908,2234 1949,2197 1988,2158 2025,2117 2059,2074 2092,2030 2122,1984 2150,1936 2176,1887 2199,1837 2219,1786 2237,1734 2252,1681 2265,1627 2274,1573 2281,1518 2286,1463 2287,1408 Z M 2232,1408 L 2231,1356 2227,1303 2220,1252 2211,1200 2199,1149 2185,1099 2168,1049 2148,1001 2126,953 2102,907 2076,862 2047,818 2016,776 1983,735 1948,696 1911,659 1872,624 1831,591 1789,560 1745,531 1700,505 1654,481 1606,459 1558,439 1508,422 1458,408 1407,396 1355,387 1304,380 1251,376 1199,375 1199,375 1147,376 1094,380 1043,387 991,396 940,408 890,422 840,439 792,459 744,481 698,505 653,531 609,560 567,591 526,624 487,659 450,696 415,735 382,776 351,818 322,862 296,907 272,953 250,1001 230,1049 213,1099 199,1149 187,1200 178,1252 171,1303 167,1356 166,1408 166,1408 167,1460 171,1513 178,1564 187,1616 199,1667 213,1717 230,1767 250,1815 272,1863 296,1909 322,1954 351,1998 382,2040 415,2081 450,2120 487,2157 526,2192 567,2225 609,2256 653,2285 698,2311 744,2335 792,2357 840,2377 890,2394 940,2408 991,2420 1043,2429 1094,2436 1147,2440 1199,2441 1199,2441 1251,2440 1304,2436 1355,2429 1407,2420 1458,2408 1508,2394 1558,2377 1606,2357 1654,2335 1700,2311 1745,2285 1789,2256 1831,2225 1872,2192 1911,2157 1948,2120 1983,2081 2016,2040 2047,1998 2076,1954 2102,1909 2126,1863 2148,1815 2168,1767 2185,1717 2199,1667 2211,1616 2220,1564 2227,1513 2231,1460 2232,1408 Z"/>
              <path fill="rgb(210,232,141)" stroke="none" d="M 2232,1408 L 2231,1356 2227,1303 2220,1252 2211,1200 2199,1149 2185,1099 2168,1049 2148,1001 2126,953 2102,907 2076,862 2047,818 2016,776 1983,735 1948,696 1911,659 1872,624 1831,591 1789,560 1745,531 1700,505 1654,481 1606,459 1558,439 1508,422 1458,408 1407,396 1355,387 1304,380 1251,376 1199,375 1199,375 1147,376 1094,380 1043,387 991,396 940,408 890,422 840,439 792,459 744,481 698,505 653,531 609,560 567,591 526,624 487,659 450,696 415,735 382,776 351,818 322,862 296,907 272,953 250,1001 230,1049 213,1099 199,1149 187,1200 178,1252 171,1303 167,1356 166,1408 166,1408 167,1460 171,1513 178,1564 187,1616 199,1667 213,1717 230,1767 250,1815 272,1863 296,1909 322,1954 351,1998 382,2040 415,2081 450,2120 487,2157 526,2192 567,2225 609,2256 653,2285 698,2311 744,2335 792,2357 840,2377 890,2394 940,2408 991,2420 1043,2429 1094,2436 1147,2440 1199,2441 1199,2441 1251,2440 1304,2436 1355,2429 1407,2420 1458,2408 1508,2394 1558,2377 1606,2357 1654,2335 1700,2311 1745,2285 1789,2256 1831,2225 1872,2192 1911,2157 1948,2120 1983,2081 2016,2040 2047,1998 2076,1954 2102,1909 2126,1863 2148,1815 2168,1767 2185,1717 2199,1667 2211,1616 2220,1564 2227,1513 2231,1460 2232,1408 Z M 2178,1408 L 2177,1358 2173,1309 2167,1260 2158,1211 2147,1163 2133,1115 2117,1068 2099,1022 2078,977 2055,933 2030,890 2003,849 1973,809 1942,770 1909,734 1873,698 1837,665 1798,634 1758,604 1717,577 1674,552 1630,529 1585,508 1539,490 1492,474 1444,460 1396,449 1347,440 1298,434 1249,430 1199,429 1199,429 1149,430 1100,434 1051,440 1002,449 954,460 906,474 859,490 813,508 768,529 724,552 681,577 640,604 600,634 561,665 525,698 489,734 456,770 425,809 395,849 368,890 343,933 320,977 299,1022 281,1068 265,1115 251,1163 240,1211 231,1260 225,1309 221,1358 220,1408 220,1408 221,1458 225,1507 231,1556 240,1605 251,1653 265,1701 281,1748 299,1794 320,1839 343,1883 368,1926 395,1967 425,2007 456,2046 489,2082 525,2118 561,2151 600,2182 640,2212 681,2239 724,2264 768,2287 813,2308 859,2326 906,2342 954,2356 1002,2367 1051,2376 1100,2382 1149,2386 1199,2387 1199,2387 1249,2386 1298,2382 1347,2376 1396,2367 1444,2356 1492,2342 1539,2326 1585,2308 1630,2287 1674,2264 1717,2239 1758,2212 1798,2182 1837,2151 1873,2118 1909,2082 1942,2046 1973,2007 2003,1967 2030,1926 2055,1883 2078,1839 2099,1794 2117,1748 2133,1701 2147,1653 2158,1605 2167,1556 2173,1507 2177,1458 2178,1408 Z"/>
              <path fill="rgb(211,232,146)" stroke="none" d="M 2178,1408 L 2177,1358 2173,1309 2167,1260 2158,1211 2147,1163 2133,1115 2117,1068 2099,1022 2078,977 2055,933 2030,890 2003,849 1973,809 1942,770 1909,734 1873,698 1837,665 1798,634 1758,604 1717,577 1674,552 1630,529 1585,508 1539,490 1492,474 1444,460 1396,449 1347,440 1298,434 1249,430 1199,429 1199,429 1149,430 1100,434 1051,440 1002,449 954,460 906,474 859,490 813,508 768,529 724,552 681,577 640,604 600,634 561,665 525,698 489,734 456,770 425,809 395,849 368,890 343,933 320,977 299,1022 281,1068 265,1115 251,1163 240,1211 231,1260 225,1309 221,1358 220,1408 220,1408 221,1458 225,1507 231,1556 240,1605 251,1653 265,1701 281,1748 299,1794 320,1839 343,1883 368,1926 395,1967 425,2007 456,2046 489,2082 525,2118 561,2151 600,2182 640,2212 681,2239 724,2264 768,2287 813,2308 859,2326 906,2342 954,2356 1002,2367 1051,2376 1100,2382 1149,2386 1199,2387 1199,2387 1249,2386 1298,2382 1347,2376 1396,2367 1444,2356 1492,2342 1539,2326 1585,2308 1630,2287 1674,2264 1717,2239 1758,2212 1798,2182 1837,2151 1873,2118 1909,2082 1942,2046 1973,2007 2003,1967 2030,1926 2055,1883 2078,1839 2099,1794 2117,1748 2133,1701 2147,1653 2158,1605 2167,1556 2173,1507 2177,1458 2178,1408 Z M 2124,1408 L 2123,1361 2119,1314 2113,1268 2105,1222 2094,1176 2082,1131 2066,1087 2049,1043 2029,1001 2008,959 1984,919 1958,880 1930,842 1901,805 1869,771 1836,738 1802,706 1765,677 1727,649 1688,623 1648,599 1606,578 1564,558 1520,541 1476,525 1431,513 1385,502 1339,494 1293,488 1246,484 1199,483 1199,483 1152,484 1105,488 1059,494 1013,502 967,513 922,525 878,541 834,558 792,578 750,599 710,623 671,649 633,677 596,706 562,738 529,771 497,805 468,842 440,880 414,919 390,959 369,1001 349,1043 332,1087 316,1131 304,1176 293,1222 285,1268 279,1314 275,1361 274,1408 274,1408 275,1455 279,1502 285,1548 293,1594 304,1640 316,1685 332,1729 349,1773 369,1815 390,1857 414,1897 440,1936 468,1974 497,2011 529,2045 562,2078 596,2110 633,2139 671,2167 710,2193 750,2217 792,2238 834,2258 878,2275 922,2291 967,2303 1013,2314 1059,2322 1105,2328 1152,2332 1199,2333 1199,2333 1246,2332 1293,2328 1339,2322 1385,2314 1431,2303 1476,2291 1520,2275 1564,2258 1606,2238 1648,2217 1688,2193 1727,2167 1765,2139 1802,2110 1836,2078 1869,2045 1901,2011 1930,1974 1958,1936 1984,1897 2008,1857 2029,1815 2049,1773 2066,1729 2082,1685 2094,1640 2105,1594 2113,1548 2119,1502 2123,1455 2124,1408 Z"/>
              <path fill="rgb(213,232,152)" stroke="none" d="M 2124,1408 L 2123,1361 2119,1314 2113,1268 2105,1222 2094,1176 2082,1131 2066,1087 2049,1043 2029,1001 2008,959 1984,919 1958,880 1930,842 1901,805 1869,771 1836,738 1802,706 1765,677 1727,649 1688,623 1648,599 1606,578 1564,558 1520,541 1476,525 1431,513 1385,502 1339,494 1293,488 1246,484 1199,483 1199,483 1152,484 1105,488 1059,494 1013,502 967,513 922,525 878,541 834,558 792,578 750,599 710,623 671,649 633,677 596,706 562,738 529,771 497,805 468,842 440,880 414,919 390,959 369,1001 349,1043 332,1087 316,1131 304,1176 293,1222 285,1268 279,1314 275,1361 274,1408 274,1408 275,1455 279,1502 285,1548 293,1594 304,1640 316,1685 332,1729 349,1773 369,1815 390,1857 414,1897 440,1936 468,1974 497,2011 529,2045 562,2078 596,2110 633,2139 671,2167 710,2193 750,2217 792,2238 834,2258 878,2275 922,2291 967,2303 1013,2314 1059,2322 1105,2328 1152,2332 1199,2333 1199,2333 1246,2332 1293,2328 1339,2322 1385,2314 1431,2303 1476,2291 1520,2275 1564,2258 1606,2238 1648,2217 1688,2193 1727,2167 1765,2139 1802,2110 1836,2078 1869,2045 1901,2011 1930,1974 1958,1936 1984,1897 2008,1857 2029,1815 2049,1773 2066,1729 2082,1685 2094,1640 2105,1594 2113,1548 2119,1502 2123,1455 2124,1408 Z M 2069,1408 L 2068,1364 2065,1320 2059,1276 2051,1233 2041,1190 2029,1148 2015,1106 1998,1065 1980,1025 1960,986 1937,948 1913,911 1887,875 1859,841 1830,809 1798,777 1766,748 1732,720 1696,694 1659,670 1621,647 1582,627 1542,609 1501,592 1459,578 1417,566 1374,556 1331,548 1287,542 1243,539 1199,538 1199,538 1155,539 1111,542 1067,548 1024,556 981,566 939,578 897,592 856,609 816,627 777,647 739,670 702,694 666,720 632,748 600,777 568,809 539,841 511,875 485,911 461,948 438,986 418,1025 400,1065 383,1106 369,1148 357,1190 347,1233 339,1276 333,1320 330,1364 329,1408 329,1408 330,1452 333,1496 339,1540 347,1583 357,1626 369,1668 383,1710 400,1751 418,1791 438,1830 461,1868 485,1905 511,1941 539,1975 568,2007 600,2039 632,2068 666,2096 702,2122 739,2146 777,2169 816,2189 856,2207 897,2224 939,2238 981,2250 1024,2260 1067,2268 1111,2274 1155,2277 1199,2278 1199,2278 1243,2277 1287,2274 1331,2268 1374,2260 1417,2250 1459,2238 1501,2224 1542,2207 1582,2189 1621,2169 1659,2146 1696,2122 1732,2096 1766,2068 1798,2039 1830,2007 1859,1975 1887,1941 1913,1905 1937,1868 1960,1830 1980,1791 1998,1751 2015,1710 2029,1668 2041,1626 2051,1583 2059,1540 2065,1496 2068,1452 2069,1408 Z"/>
              <path fill="rgb(214,232,157)" stroke="none" d="M 2069,1408 L 2068,1364 2065,1320 2059,1276 2051,1233 2041,1190 2029,1148 2015,1106 1998,1065 1980,1025 1960,986 1937,948 1913,911 1887,875 1859,841 1830,809 1798,777 1766,748 1732,720 1696,694 1659,670 1621,647 1582,627 1542,609 1501,592 1459,578 1417,566 1374,556 1331,548 1287,542 1243,539 1199,538 1199,538 1155,539 1111,542 1067,548 1024,556 981,566 939,578 897,592 856,609 816,627 777,647 739,670 702,694 666,720 632,748 600,777 568,809 539,841 511,875 485,911 461,948 438,986 418,1025 400,1065 383,1106 369,1148 357,1190 347,1233 339,1276 333,1320 330,1364 329,1408 329,1408 330,1452 333,1496 339,1540 347,1583 357,1626 369,1668 383,1710 400,1751 418,1791 438,1830 461,1868 485,1905 511,1941 539,1975 568,2007 600,2039 632,2068 666,2096 702,2122 739,2146 777,2169 816,2189 856,2207 897,2224 939,2238 981,2250 1024,2260 1067,2268 1111,2274 1155,2277 1199,2278 1199,2278 1243,2277 1287,2274 1331,2268 1374,2260 1417,2250 1459,2238 1501,2224 1542,2207 1582,2189 1621,2169 1659,2146 1696,2122 1732,2096 1766,2068 1798,2039 1830,2007 1859,1975 1887,1941 1913,1905 1937,1868 1960,1830 1980,1791 1998,1751 2015,1710 2029,1668 2041,1626 2051,1583 2059,1540 2065,1496 2068,1452 2069,1408 Z M 2015,1408 L 2014,1367 2011,1325 2006,1284 1998,1244 1989,1203 1978,1164 1964,1125 1949,1086 1932,1049 1912,1012 1891,976 1869,942 1844,909 1818,876 1790,846 1761,817 1731,789 1698,763 1665,738 1631,716 1595,695 1558,675 1521,658 1482,643 1443,629 1404,618 1363,609 1323,601 1282,596 1240,593 1199,592 1199,592 1158,593 1116,596 1075,601 1035,609 994,618 955,629 916,643 877,658 840,675 803,695 767,716 733,738 700,763 667,789 637,817 608,846 580,876 554,909 529,942 507,976 486,1012 466,1049 449,1086 434,1125 420,1164 409,1203 400,1244 392,1284 387,1325 384,1367 383,1408 383,1408 384,1449 387,1491 392,1532 400,1572 409,1613 420,1652 434,1691 449,1730 466,1767 486,1804 507,1840 529,1874 554,1907 580,1940 608,1970 637,1999 667,2027 700,2053 733,2078 767,2100 803,2121 840,2141 877,2158 916,2173 955,2187 994,2198 1035,2207 1075,2215 1116,2220 1158,2223 1199,2224 1199,2224 1240,2223 1282,2220 1323,2215 1363,2207 1404,2198 1443,2187 1482,2173 1521,2158 1558,2141 1595,2121 1631,2100 1665,2078 1698,2053 1731,2027 1761,1999 1790,1970 1818,1940 1844,1907 1869,1874 1891,1840 1912,1804 1932,1767 1949,1730 1964,1691 1978,1652 1989,1613 1998,1572 2006,1532 2011,1491 2014,1449 2015,1408 Z"/>
              <path fill="rgb(216,233,162)" stroke="none" d="M 2015,1408 L 2014,1367 2011,1325 2006,1284 1998,1244 1989,1203 1978,1164 1964,1125 1949,1086 1932,1049 1912,1012 1891,976 1869,942 1844,909 1818,876 1790,846 1761,817 1731,789 1698,763 1665,738 1631,716 1595,695 1558,675 1521,658 1482,643 1443,629 1404,618 1363,609 1323,601 1282,596 1240,593 1199,592 1199,592 1158,593 1116,596 1075,601 1035,609 994,618 955,629 916,643 877,658 840,675 803,695 767,716 733,738 700,763 667,789 637,817 608,846 580,876 554,909 529,942 507,976 486,1012 466,1049 449,1086 434,1125 420,1164 409,1203 400,1244 392,1284 387,1325 384,1367 383,1408 383,1408 384,1449 387,1491 392,1532 400,1572 409,1613 420,1652 434,1691 449,1730 466,1767 486,1804 507,1840 529,1874 554,1907 580,1940 608,1970 637,1999 667,2027 700,2053 733,2078 767,2100 803,2121 840,2141 877,2158 916,2173 955,2187 994,2198 1035,2207 1075,2215 1116,2220 1158,2223 1199,2224 1199,2224 1240,2223 1282,2220 1323,2215 1363,2207 1404,2198 1443,2187 1482,2173 1521,2158 1558,2141 1595,2121 1631,2100 1665,2078 1698,2053 1731,2027 1761,1999 1790,1970 1818,1940 1844,1907 1869,1874 1891,1840 1912,1804 1932,1767 1949,1730 1964,1691 1978,1652 1989,1613 1998,1572 2006,1532 2011,1491 2014,1449 2015,1408 Z M 1960,1408 L 1959,1369 1956,1331 1951,1293 1944,1255 1936,1217 1925,1180 1913,1144 1898,1108 1882,1073 1864,1039 1845,1005 1824,973 1801,942 1776,912 1751,884 1723,856 1695,831 1665,806 1634,783 1602,762 1568,743 1534,725 1499,709 1463,694 1427,682 1390,671 1352,663 1314,656 1276,651 1238,648 1199,647 1199,647 1160,648 1122,651 1084,656 1046,663 1008,671 971,682 935,694 899,709 864,725 830,743 796,762 764,783 733,806 703,831 675,856 647,884 622,912 597,942 574,973 553,1005 534,1039 516,1073 500,1108 485,1144 473,1180 462,1217 454,1255 447,1293 442,1331 439,1369 438,1408 438,1408 439,1447 442,1485 447,1523 454,1561 462,1599 473,1636 485,1672 500,1708 516,1743 534,1777 553,1811 574,1843 597,1874 622,1904 647,1932 675,1960 703,1985 733,2010 764,2033 796,2054 830,2073 864,2091 899,2107 935,2122 971,2134 1008,2145 1046,2153 1084,2160 1122,2165 1160,2168 1199,2169 1199,2169 1238,2168 1276,2165 1314,2160 1352,2153 1390,2145 1427,2134 1463,2122 1499,2107 1534,2091 1568,2073 1602,2054 1634,2033 1665,2010 1695,1985 1723,1960 1751,1932 1776,1904 1801,1874 1824,1843 1845,1811 1864,1777 1882,1743 1898,1708 1913,1672 1925,1636 1936,1599 1944,1561 1951,1523 1956,1485 1959,1447 1960,1408 Z"/>
              <path fill="rgb(217,233,167)" stroke="none" d="M 1960,1408 L 1959,1369 1956,1331 1951,1293 1944,1255 1936,1217 1925,1180 1913,1144 1898,1108 1882,1073 1864,1039 1845,1005 1824,973 1801,942 1776,912 1751,884 1723,856 1695,831 1665,806 1634,783 1602,762 1568,743 1534,725 1499,709 1463,694 1427,682 1390,671 1352,663 1314,656 1276,651 1238,648 1199,647 1199,647 1160,648 1122,651 1084,656 1046,663 1008,671 971,682 935,694 899,709 864,725 830,743 796,762 764,783 733,806 703,831 675,856 647,884 622,912 597,942 574,973 553,1005 534,1039 516,1073 500,1108 485,1144 473,1180 462,1217 454,1255 447,1293 442,1331 439,1369 438,1408 438,1408 439,1447 442,1485 447,1523 454,1561 462,1599 473,1636 485,1672 500,1708 516,1743 534,1777 553,1811 574,1843 597,1874 622,1904 647,1932 675,1960 703,1985 733,2010 764,2033 796,2054 830,2073 864,2091 899,2107 935,2122 971,2134 1008,2145 1046,2153 1084,2160 1122,2165 1160,2168 1199,2169 1199,2169 1238,2168 1276,2165 1314,2160 1352,2153 1390,2145 1427,2134 1463,2122 1499,2107 1534,2091 1568,2073 1602,2054 1634,2033 1665,2010 1695,1985 1723,1960 1751,1932 1776,1904 1801,1874 1824,1843 1845,1811 1864,1777 1882,1743 1898,1708 1913,1672 1925,1636 1936,1599 1944,1561 1951,1523 1956,1485 1959,1447 1960,1408 Z M 1906,1408 L 1905,1372 1902,1336 1898,1301 1892,1266 1883,1231 1874,1196 1862,1162 1849,1129 1834,1097 1817,1065 1799,1034 1779,1004 1758,975 1735,947 1711,921 1686,896 1660,872 1632,849 1603,828 1573,808 1542,790 1510,773 1478,758 1445,745 1411,733 1376,724 1341,715 1306,709 1271,705 1235,702 1199,701 1199,701 1163,702 1127,705 1092,709 1057,715 1022,724 987,733 953,745 920,758 888,773 856,790 825,808 795,828 766,849 738,872 712,896 687,921 663,947 640,975 619,1004 599,1034 581,1065 564,1097 549,1129 536,1162 524,1196 515,1231 506,1266 500,1301 496,1336 493,1372 492,1408 492,1408 493,1444 496,1480 500,1515 506,1550 515,1585 524,1620 536,1654 549,1687 564,1719 581,1751 599,1782 619,1812 640,1841 663,1869 687,1895 712,1920 738,1944 766,1967 795,1988 825,2008 856,2026 888,2043 920,2058 953,2071 987,2083 1022,2092 1057,2101 1092,2107 1127,2111 1163,2114 1199,2115 1199,2115 1235,2114 1271,2111 1306,2107 1341,2101 1376,2092 1411,2083 1445,2071 1478,2058 1510,2043 1542,2026 1573,2008 1603,1988 1632,1967 1660,1944 1686,1920 1711,1895 1735,1869 1758,1841 1779,1812 1799,1782 1817,1751 1834,1719 1849,1687 1862,1654 1874,1620 1883,1585 1892,1550 1898,1515 1902,1480 1905,1444 1906,1408 Z"/>
              <path fill="rgb(219,233,172)" stroke="none" d="M 1906,1408 L 1905,1372 1902,1336 1898,1301 1892,1266 1883,1231 1874,1196 1862,1162 1849,1129 1834,1097 1817,1065 1799,1034 1779,1004 1758,975 1735,947 1711,921 1686,896 1660,872 1632,849 1603,828 1573,808 1542,790 1510,773 1478,758 1445,745 1411,733 1376,724 1341,715 1306,709 1271,705 1235,702 1199,701 1199,701 1163,702 1127,705 1092,709 1057,715 1022,724 987,733 953,745 920,758 888,773 856,790 825,808 795,828 766,849 738,872 712,896 687,921 663,947 640,975 619,1004 599,1034 581,1065 564,1097 549,1129 536,1162 524,1196 515,1231 506,1266 500,1301 496,1336 493,1372 492,1408 492,1408 493,1444 496,1480 500,1515 506,1550 515,1585 524,1620 536,1654 549,1687 564,1719 581,1751 599,1782 619,1812 640,1841 663,1869 687,1895 712,1920 738,1944 766,1967 795,1988 825,2008 856,2026 888,2043 920,2058 953,2071 987,2083 1022,2092 1057,2101 1092,2107 1127,2111 1163,2114 1199,2115 1199,2115 1235,2114 1271,2111 1306,2107 1341,2101 1376,2092 1411,2083 1445,2071 1478,2058 1510,2043 1542,2026 1573,2008 1603,1988 1632,1967 1660,1944 1686,1920 1711,1895 1735,1869 1758,1841 1779,1812 1799,1782 1817,1751 1834,1719 1849,1687 1862,1654 1874,1620 1883,1585 1892,1550 1898,1515 1902,1480 1905,1444 1906,1408 Z M 1852,1408 L 1851,1375 1849,1342 1844,1309 1839,1277 1831,1244 1822,1213 1811,1181 1799,1150 1785,1120 1770,1091 1753,1063 1735,1035 1715,1008 1694,983 1672,958 1649,935 1624,913 1599,892 1572,872 1544,854 1516,837 1487,822 1457,808 1426,796 1394,785 1363,776 1330,768 1298,763 1265,758 1232,756 1199,755 1199,755 1166,756 1133,758 1100,763 1068,768 1035,776 1004,785 972,796 941,808 911,822 882,837 854,854 826,872 799,892 774,913 749,935 726,958 704,983 683,1008 663,1035 645,1063 628,1091 613,1120 599,1150 587,1181 576,1213 567,1244 559,1277 554,1309 549,1342 547,1375 546,1408 546,1408 547,1441 549,1474 554,1507 559,1539 567,1572 576,1603 587,1635 599,1666 613,1696 628,1725 645,1753 663,1781 683,1808 704,1833 726,1858 749,1881 774,1903 799,1924 826,1944 854,1962 882,1979 911,1994 941,2008 972,2020 1004,2031 1035,2040 1068,2048 1100,2053 1133,2058 1166,2060 1199,2061 1199,2061 1232,2060 1265,2058 1298,2053 1330,2048 1363,2040 1394,2031 1426,2020 1457,2008 1487,1994 1516,1979 1544,1962 1572,1944 1599,1924 1624,1903 1649,1881 1672,1858 1694,1833 1715,1808 1735,1781 1753,1753 1770,1725 1785,1696 1799,1666 1811,1635 1822,1603 1831,1572 1839,1539 1844,1507 1849,1474 1851,1441 1852,1408 Z"/>
              <path fill="rgb(220,234,177)" stroke="none" d="M 1852,1408 L 1851,1375 1849,1342 1844,1309 1839,1277 1831,1244 1822,1213 1811,1181 1799,1150 1785,1120 1770,1091 1753,1063 1735,1035 1715,1008 1694,983 1672,958 1649,935 1624,913 1599,892 1572,872 1544,854 1516,837 1487,822 1457,808 1426,796 1394,785 1363,776 1330,768 1298,763 1265,758 1232,756 1199,755 1199,755 1166,756 1133,758 1100,763 1068,768 1035,776 1004,785 972,796 941,808 911,822 882,837 854,854 826,872 799,892 774,913 749,935 726,958 704,983 683,1008 663,1035 645,1063 628,1091 613,1120 599,1150 587,1181 576,1213 567,1244 559,1277 554,1309 549,1342 547,1375 546,1408 546,1408 547,1441 549,1474 554,1507 559,1539 567,1572 576,1603 587,1635 599,1666 613,1696 628,1725 645,1753 663,1781 683,1808 704,1833 726,1858 749,1881 774,1903 799,1924 826,1944 854,1962 882,1979 911,1994 941,2008 972,2020 1004,2031 1035,2040 1068,2048 1100,2053 1133,2058 1166,2060 1199,2061 1199,2061 1232,2060 1265,2058 1298,2053 1330,2048 1363,2040 1394,2031 1426,2020 1457,2008 1487,1994 1516,1979 1544,1962 1572,1944 1599,1924 1624,1903 1649,1881 1672,1858 1694,1833 1715,1808 1735,1781 1753,1753 1770,1725 1785,1696 1799,1666 1811,1635 1822,1603 1831,1572 1839,1539 1844,1507 1849,1474 1851,1441 1852,1408 Z M 1797,1408 L 1796,1378 1794,1348 1790,1317 1785,1288 1778,1258 1770,1229 1760,1200 1749,1172 1736,1145 1722,1118 1706,1092 1690,1066 1672,1042 1653,1018 1632,996 1611,975 1589,954 1565,935 1541,917 1515,901 1489,885 1462,871 1435,858 1407,847 1378,837 1349,829 1319,822 1290,817 1259,813 1229,811 1199,810 1199,810 1169,811 1139,813 1108,817 1079,822 1049,829 1020,837 991,847 963,858 936,871 909,885 883,901 857,917 833,935 809,954 787,975 766,996 745,1018 726,1042 708,1066 692,1092 676,1118 662,1145 649,1172 638,1200 628,1229 620,1258 613,1288 608,1317 604,1348 602,1378 601,1408 601,1408 602,1438 604,1468 608,1499 613,1528 620,1558 628,1587 638,1616 649,1644 662,1671 676,1698 692,1724 708,1750 726,1774 745,1798 766,1820 787,1841 809,1862 833,1881 857,1899 883,1915 909,1931 936,1945 963,1958 991,1969 1020,1979 1049,1987 1079,1994 1108,1999 1139,2003 1169,2005 1199,2006 1199,2006 1229,2005 1259,2003 1290,1999 1319,1994 1349,1987 1378,1979 1407,1969 1435,1958 1462,1945 1489,1931 1515,1915 1541,1899 1565,1881 1589,1862 1611,1841 1632,1820 1653,1798 1672,1774 1690,1750 1706,1724 1722,1698 1736,1671 1749,1644 1760,1616 1770,1587 1778,1558 1785,1528 1790,1499 1794,1468 1796,1438 1797,1408 Z"/>
              <path fill="rgb(221,234,182)" stroke="none" d="M 1797,1408 L 1796,1378 1794,1348 1790,1317 1785,1288 1778,1258 1770,1229 1760,1200 1749,1172 1736,1145 1722,1118 1706,1092 1690,1066 1672,1042 1653,1018 1632,996 1611,975 1589,954 1565,935 1541,917 1515,901 1489,885 1462,871 1435,858 1407,847 1378,837 1349,829 1319,822 1290,817 1259,813 1229,811 1199,810 1199,810 1169,811 1139,813 1108,817 1079,822 1049,829 1020,837 991,847 963,858 936,871 909,885 883,901 857,917 833,935 809,954 787,975 766,996 745,1018 726,1042 708,1066 692,1092 676,1118 662,1145 649,1172 638,1200 628,1229 620,1258 613,1288 608,1317 604,1348 602,1378 601,1408 601,1408 602,1438 604,1468 608,1499 613,1528 620,1558 628,1587 638,1616 649,1644 662,1671 676,1698 692,1724 708,1750 726,1774 745,1798 766,1820 787,1841 809,1862 833,1881 857,1899 883,1915 909,1931 936,1945 963,1958 991,1969 1020,1979 1049,1987 1079,1994 1108,1999 1139,2003 1169,2005 1199,2006 1199,2006 1229,2005 1259,2003 1290,1999 1319,1994 1349,1987 1378,1979 1407,1969 1435,1958 1462,1945 1489,1931 1515,1915 1541,1899 1565,1881 1589,1862 1611,1841 1632,1820 1653,1798 1672,1774 1690,1750 1706,1724 1722,1698 1736,1671 1749,1644 1760,1616 1770,1587 1778,1558 1785,1528 1790,1499 1794,1468 1796,1438 1797,1408 Z M 1743,1408 L 1742,1380 1740,1353 1737,1326 1732,1298 1726,1272 1718,1245 1709,1219 1699,1193 1687,1168 1675,1144 1661,1120 1645,1097 1629,1075 1612,1054 1593,1033 1574,1014 1553,995 1532,978 1510,962 1487,946 1463,932 1439,920 1414,908 1388,898 1362,889 1335,881 1309,875 1281,870 1254,867 1227,865 1199,864 1199,864 1171,865 1144,867 1117,870 1089,875 1063,881 1036,889 1010,898 984,908 959,920 935,932 911,946 888,962 866,978 845,995 824,1014 805,1033 786,1054 769,1075 753,1097 737,1120 723,1144 711,1168 699,1193 689,1219 680,1245 672,1272 666,1298 661,1326 658,1353 656,1380 655,1408 655,1408 656,1436 658,1463 661,1490 666,1518 672,1544 680,1571 689,1597 699,1623 711,1648 723,1672 737,1696 753,1719 769,1741 786,1762 805,1783 824,1802 845,1821 866,1838 888,1854 911,1870 935,1884 959,1896 984,1908 1010,1918 1036,1927 1063,1935 1089,1941 1117,1946 1144,1949 1171,1951 1199,1952 1199,1952 1227,1951 1254,1949 1281,1946 1309,1941 1335,1935 1362,1927 1388,1918 1414,1908 1439,1896 1463,1884 1487,1870 1510,1854 1532,1838 1553,1821 1574,1802 1593,1783 1612,1762 1629,1741 1645,1719 1661,1696 1675,1672 1687,1648 1699,1623 1709,1597 1718,1571 1726,1544 1732,1518 1737,1490 1740,1463 1742,1436 1743,1408 Z"/>
              <path fill="rgb(223,234,187)" stroke="none" d="M 1743,1408 L 1742,1380 1740,1353 1737,1326 1732,1298 1726,1272 1718,1245 1709,1219 1699,1193 1687,1168 1675,1144 1661,1120 1645,1097 1629,1075 1612,1054 1593,1033 1574,1014 1553,995 1532,978 1510,962 1487,946 1463,932 1439,920 1414,908 1388,898 1362,889 1335,881 1309,875 1281,870 1254,867 1227,865 1199,864 1199,864 1171,865 1144,867 1117,870 1089,875 1063,881 1036,889 1010,898 984,908 959,920 935,932 911,946 888,962 866,978 845,995 824,1014 805,1033 786,1054 769,1075 753,1097 737,1120 723,1144 711,1168 699,1193 689,1219 680,1245 672,1272 666,1298 661,1326 658,1353 656,1380 655,1408 655,1408 656,1436 658,1463 661,1490 666,1518 672,1544 680,1571 689,1597 699,1623 711,1648 723,1672 737,1696 753,1719 769,1741 786,1762 805,1783 824,1802 845,1821 866,1838 888,1854 911,1870 935,1884 959,1896 984,1908 1010,1918 1036,1927 1063,1935 1089,1941 1117,1946 1144,1949 1171,1951 1199,1952 1199,1952 1227,1951 1254,1949 1281,1946 1309,1941 1335,1935 1362,1927 1388,1918 1414,1908 1439,1896 1463,1884 1487,1870 1510,1854 1532,1838 1553,1821 1574,1802 1593,1783 1612,1762 1629,1741 1645,1719 1661,1696 1675,1672 1687,1648 1699,1623 1709,1597 1718,1571 1726,1544 1732,1518 1737,1490 1740,1463 1742,1436 1743,1408 Z M 1688,1408 L 1687,1383 1685,1359 1682,1334 1678,1310 1672,1285 1666,1262 1658,1238 1648,1215 1638,1193 1627,1171 1614,1149 1600,1129 1586,1109 1570,1089 1553,1071 1536,1054 1518,1037 1498,1021 1478,1007 1458,993 1436,980 1414,969 1392,959 1369,949 1345,941 1322,935 1297,929 1273,925 1248,922 1224,920 1199,919 1199,919 1174,920 1150,922 1125,925 1101,929 1076,935 1053,941 1029,949 1006,959 984,969 962,980 940,993 920,1007 900,1021 880,1037 862,1054 845,1071 828,1089 812,1109 798,1129 784,1149 771,1171 760,1193 750,1215 740,1238 732,1262 726,1285 720,1310 716,1334 713,1359 711,1383 710,1408 710,1408 711,1433 713,1457 716,1482 720,1506 726,1531 732,1554 740,1578 750,1601 760,1623 771,1645 784,1667 798,1687 812,1707 828,1727 845,1745 862,1762 880,1779 900,1795 920,1809 940,1823 962,1836 984,1847 1006,1857 1029,1867 1053,1875 1076,1881 1101,1887 1125,1891 1150,1894 1174,1896 1199,1897 1199,1897 1224,1896 1248,1894 1273,1891 1297,1887 1322,1881 1345,1875 1369,1867 1392,1857 1414,1847 1436,1836 1458,1823 1478,1809 1498,1795 1518,1779 1536,1762 1553,1745 1570,1727 1586,1707 1600,1687 1614,1667 1627,1645 1638,1623 1648,1601 1658,1578 1666,1554 1672,1531 1678,1506 1682,1482 1685,1457 1687,1433 1688,1408 Z"/>
              <path fill="rgb(224,235,192)" stroke="none" d="M 1688,1408 L 1687,1383 1685,1359 1682,1334 1678,1310 1672,1285 1666,1262 1658,1238 1648,1215 1638,1193 1627,1171 1614,1149 1600,1129 1586,1109 1570,1089 1553,1071 1536,1054 1518,1037 1498,1021 1478,1007 1458,993 1436,980 1414,969 1392,959 1369,949 1345,941 1322,935 1297,929 1273,925 1248,922 1224,920 1199,919 1199,919 1174,920 1150,922 1125,925 1101,929 1076,935 1053,941 1029,949 1006,959 984,969 962,980 940,993 920,1007 900,1021 880,1037 862,1054 845,1071 828,1089 812,1109 798,1129 784,1149 771,1171 760,1193 750,1215 740,1238 732,1262 726,1285 720,1310 716,1334 713,1359 711,1383 710,1408 710,1408 711,1433 713,1457 716,1482 720,1506 726,1531 732,1554 740,1578 750,1601 760,1623 771,1645 784,1667 798,1687 812,1707 828,1727 845,1745 862,1762 880,1779 900,1795 920,1809 940,1823 962,1836 984,1847 1006,1857 1029,1867 1053,1875 1076,1881 1101,1887 1125,1891 1150,1894 1174,1896 1199,1897 1199,1897 1224,1896 1248,1894 1273,1891 1297,1887 1322,1881 1345,1875 1369,1867 1392,1857 1414,1847 1436,1836 1458,1823 1478,1809 1498,1795 1518,1779 1536,1762 1553,1745 1570,1727 1586,1707 1600,1687 1614,1667 1627,1645 1638,1623 1648,1601 1658,1578 1666,1554 1672,1531 1678,1506 1682,1482 1685,1457 1687,1433 1688,1408 Z M 1634,1408 L 1633,1386 1632,1364 1629,1342 1625,1320 1620,1299 1614,1278 1607,1257 1599,1236 1590,1216 1579,1197 1568,1178 1556,1159 1543,1142 1529,1125 1514,1108 1499,1093 1482,1078 1465,1064 1448,1051 1429,1039 1410,1028 1391,1017 1371,1008 1350,1000 1329,993 1308,987 1287,982 1265,978 1243,975 1221,974 1199,973 1199,973 1177,974 1155,975 1133,978 1111,982 1090,987 1069,993 1048,1000 1027,1008 1007,1017 988,1028 969,1039 950,1051 933,1064 916,1078 899,1093 884,1108 869,1125 855,1142 842,1159 830,1178 819,1197 808,1216 799,1236 791,1257 784,1278 778,1299 773,1320 769,1342 766,1364 765,1386 764,1408 764,1408 765,1430 766,1452 769,1474 773,1496 778,1517 784,1538 791,1559 799,1580 808,1600 819,1619 830,1638 842,1657 855,1674 869,1691 884,1708 899,1723 916,1738 933,1752 950,1765 969,1777 988,1788 1007,1799 1027,1808 1048,1816 1069,1823 1090,1829 1111,1834 1133,1838 1155,1841 1177,1842 1199,1843 1199,1843 1221,1842 1243,1841 1265,1838 1287,1834 1308,1829 1329,1823 1350,1816 1371,1808 1391,1799 1410,1788 1429,1777 1448,1765 1465,1752 1482,1738 1499,1723 1514,1708 1529,1691 1543,1674 1556,1657 1568,1638 1579,1619 1590,1600 1599,1580 1607,1559 1614,1538 1620,1517 1625,1496 1629,1474 1632,1452 1633,1430 1634,1408 Z"/>
              <path fill="rgb(226,235,197)" stroke="none" d="M 1634,1408 L 1633,1386 1632,1364 1629,1342 1625,1320 1620,1299 1614,1278 1607,1257 1599,1236 1590,1216 1579,1197 1568,1178 1556,1159 1543,1142 1529,1125 1514,1108 1499,1093 1482,1078 1465,1064 1448,1051 1429,1039 1410,1028 1391,1017 1371,1008 1350,1000 1329,993 1308,987 1287,982 1265,978 1243,975 1221,974 1199,973 1199,973 1177,974 1155,975 1133,978 1111,982 1090,987 1069,993 1048,1000 1027,1008 1007,1017 988,1028 969,1039 950,1051 933,1064 916,1078 899,1093 884,1108 869,1125 855,1142 842,1159 830,1178 819,1197 808,1216 799,1236 791,1257 784,1278 778,1299 773,1320 769,1342 766,1364 765,1386 764,1408 764,1408 765,1430 766,1452 769,1474 773,1496 778,1517 784,1538 791,1559 799,1580 808,1600 819,1619 830,1638 842,1657 855,1674 869,1691 884,1708 899,1723 916,1738 933,1752 950,1765 969,1777 988,1788 1007,1799 1027,1808 1048,1816 1069,1823 1090,1829 1111,1834 1133,1838 1155,1841 1177,1842 1199,1843 1199,1843 1221,1842 1243,1841 1265,1838 1287,1834 1308,1829 1329,1823 1350,1816 1371,1808 1391,1799 1410,1788 1429,1777 1448,1765 1465,1752 1482,1738 1499,1723 1514,1708 1529,1691 1543,1674 1556,1657 1568,1638 1579,1619 1590,1600 1599,1580 1607,1559 1614,1538 1620,1517 1625,1496 1629,1474 1632,1452 1633,1430 1634,1408 Z M 1580,1408 L 1580,1389 1578,1369 1576,1350 1572,1331 1568,1313 1563,1294 1556,1276 1549,1258 1541,1240 1532,1223 1522,1206 1512,1190 1500,1175 1488,1160 1475,1146 1461,1132 1447,1119 1432,1107 1417,1095 1401,1085 1384,1075 1367,1066 1349,1058 1331,1051 1313,1044 1294,1039 1276,1035 1257,1031 1238,1029 1218,1027 1199,1027 1199,1027 1180,1027 1160,1029 1141,1031 1122,1035 1104,1039 1085,1044 1067,1051 1049,1058 1031,1066 1014,1075 997,1085 981,1095 966,1107 951,1119 937,1132 923,1146 910,1160 898,1175 886,1190 876,1206 866,1223 857,1240 849,1258 842,1276 835,1294 830,1313 826,1331 822,1350 820,1369 818,1389 818,1408 818,1408 818,1427 820,1447 822,1466 826,1485 830,1503 835,1522 842,1540 849,1558 857,1576 866,1593 876,1610 886,1626 898,1641 910,1656 923,1670 937,1684 951,1697 966,1709 981,1721 997,1731 1014,1741 1031,1750 1049,1758 1067,1765 1085,1772 1104,1777 1122,1781 1141,1785 1160,1787 1180,1789 1199,1789 1199,1789 1218,1789 1238,1787 1257,1785 1276,1781 1294,1777 1313,1772 1331,1765 1349,1758 1367,1750 1384,1741 1401,1731 1417,1721 1432,1709 1447,1697 1461,1684 1475,1670 1488,1656 1500,1641 1512,1626 1522,1610 1532,1593 1541,1576 1549,1558 1556,1540 1563,1522 1568,1503 1572,1485 1576,1466 1578,1447 1580,1427 1580,1408 Z"/>
              <path fill="rgb(227,235,202)" stroke="none" d="M 1580,1408 L 1580,1389 1578,1369 1576,1350 1572,1331 1568,1313 1563,1294 1556,1276 1549,1258 1541,1240 1532,1223 1522,1206 1512,1190 1500,1175 1488,1160 1475,1146 1461,1132 1447,1119 1432,1107 1417,1095 1401,1085 1384,1075 1367,1066 1349,1058 1331,1051 1313,1044 1294,1039 1276,1035 1257,1031 1238,1029 1218,1027 1199,1027 1199,1027 1180,1027 1160,1029 1141,1031 1122,1035 1104,1039 1085,1044 1067,1051 1049,1058 1031,1066 1014,1075 997,1085 981,1095 966,1107 951,1119 937,1132 923,1146 910,1160 898,1175 886,1190 876,1206 866,1223 857,1240 849,1258 842,1276 835,1294 830,1313 826,1331 822,1350 820,1369 818,1389 818,1408 818,1408 818,1427 820,1447 822,1466 826,1485 830,1503 835,1522 842,1540 849,1558 857,1576 866,1593 876,1610 886,1626 898,1641 910,1656 923,1670 937,1684 951,1697 966,1709 981,1721 997,1731 1014,1741 1031,1750 1049,1758 1067,1765 1085,1772 1104,1777 1122,1781 1141,1785 1160,1787 1180,1789 1199,1789 1199,1789 1218,1789 1238,1787 1257,1785 1276,1781 1294,1777 1313,1772 1331,1765 1349,1758 1367,1750 1384,1741 1401,1731 1417,1721 1432,1709 1447,1697 1461,1684 1475,1670 1488,1656 1500,1641 1512,1626 1522,1610 1532,1593 1541,1576 1549,1558 1556,1540 1563,1522 1568,1503 1572,1485 1576,1466 1578,1447 1580,1427 1580,1408 Z M 1525,1408 L 1525,1391 1523,1375 1521,1359 1518,1342 1515,1326 1510,1310 1505,1295 1499,1279 1492,1264 1484,1250 1476,1236 1467,1222 1457,1208 1446,1196 1435,1183 1424,1172 1411,1161 1399,1150 1385,1140 1371,1131 1357,1123 1343,1115 1328,1108 1312,1102 1297,1097 1281,1092 1265,1089 1248,1086 1232,1084 1216,1082 1199,1082 1199,1082 1182,1082 1166,1084 1150,1086 1133,1089 1117,1092 1101,1097 1086,1102 1070,1108 1055,1115 1041,1123 1027,1131 1013,1140 999,1150 987,1161 974,1172 963,1183 952,1196 941,1208 931,1222 922,1236 914,1250 906,1264 899,1279 893,1295 888,1310 883,1326 880,1342 877,1359 875,1375 873,1391 873,1408 873,1408 873,1425 875,1441 877,1457 880,1474 883,1490 888,1506 893,1521 899,1537 906,1552 914,1566 922,1580 931,1594 941,1608 952,1620 963,1633 974,1644 987,1655 999,1666 1013,1676 1027,1685 1041,1693 1055,1701 1070,1708 1086,1714 1101,1719 1117,1724 1133,1727 1150,1730 1166,1732 1182,1734 1199,1734 1199,1734 1216,1734 1232,1732 1248,1730 1265,1727 1281,1724 1297,1719 1312,1714 1328,1708 1343,1701 1357,1693 1371,1685 1385,1676 1399,1666 1411,1655 1424,1644 1435,1633 1446,1620 1457,1608 1467,1594 1476,1580 1484,1566 1492,1552 1499,1537 1505,1521 1510,1506 1515,1490 1518,1474 1521,1457 1523,1441 1525,1425 1525,1408 Z"/>
              <path fill="rgb(229,236,207)" stroke="none" d="M 1525,1408 L 1525,1391 1523,1375 1521,1359 1518,1342 1515,1326 1510,1310 1505,1295 1499,1279 1492,1264 1484,1250 1476,1236 1467,1222 1457,1208 1446,1196 1435,1183 1424,1172 1411,1161 1399,1150 1385,1140 1371,1131 1357,1123 1343,1115 1328,1108 1312,1102 1297,1097 1281,1092 1265,1089 1248,1086 1232,1084 1216,1082 1199,1082 1199,1082 1182,1082 1166,1084 1150,1086 1133,1089 1117,1092 1101,1097 1086,1102 1070,1108 1055,1115 1041,1123 1027,1131 1013,1140 999,1150 987,1161 974,1172 963,1183 952,1196 941,1208 931,1222 922,1236 914,1250 906,1264 899,1279 893,1295 888,1310 883,1326 880,1342 877,1359 875,1375 873,1391 873,1408 873,1408 873,1425 875,1441 877,1457 880,1474 883,1490 888,1506 893,1521 899,1537 906,1552 914,1566 922,1580 931,1594 941,1608 952,1620 963,1633 974,1644 987,1655 999,1666 1013,1676 1027,1685 1041,1693 1055,1701 1070,1708 1086,1714 1101,1719 1117,1724 1133,1727 1150,1730 1166,1732 1182,1734 1199,1734 1199,1734 1216,1734 1232,1732 1248,1730 1265,1727 1281,1724 1297,1719 1312,1714 1328,1708 1343,1701 1357,1693 1371,1685 1385,1676 1399,1666 1411,1655 1424,1644 1435,1633 1446,1620 1457,1608 1467,1594 1476,1580 1484,1566 1492,1552 1499,1537 1505,1521 1510,1506 1515,1490 1518,1474 1521,1457 1523,1441 1525,1425 1525,1408 Z M 1471,1408 L 1471,1394 1470,1380 1468,1367 1465,1353 1462,1340 1459,1327 1454,1314 1449,1301 1443,1288 1437,1276 1430,1264 1422,1253 1414,1242 1405,1231 1396,1221 1386,1211 1376,1202 1365,1193 1354,1185 1343,1177 1331,1170 1319,1164 1306,1158 1293,1153 1280,1148 1267,1145 1254,1142 1240,1139 1227,1137 1213,1136 1199,1136 1199,1136 1185,1136 1171,1137 1158,1139 1144,1142 1131,1145 1118,1148 1105,1153 1092,1158 1079,1164 1067,1170 1055,1177 1044,1185 1033,1193 1022,1202 1012,1211 1002,1221 993,1231 984,1242 976,1253 968,1264 961,1276 955,1288 949,1301 944,1314 939,1327 936,1340 933,1353 930,1367 928,1380 927,1394 927,1408 927,1408 927,1422 928,1436 930,1449 933,1463 936,1476 939,1489 944,1502 949,1515 955,1528 961,1540 968,1552 976,1563 984,1574 993,1585 1002,1595 1012,1605 1022,1614 1033,1623 1044,1631 1055,1639 1067,1646 1079,1652 1092,1658 1105,1663 1118,1668 1131,1671 1144,1674 1158,1677 1171,1679 1185,1680 1199,1680 1199,1680 1213,1680 1227,1679 1240,1677 1254,1674 1267,1671 1280,1668 1293,1663 1306,1658 1319,1652 1331,1646 1343,1639 1354,1631 1365,1623 1376,1614 1386,1605 1396,1595 1405,1585 1414,1574 1422,1563 1430,1552 1437,1540 1443,1528 1449,1515 1454,1502 1459,1489 1462,1476 1465,1463 1468,1449 1470,1436 1471,1422 1471,1408 Z"/>
              <path fill="rgb(230,236,212)" stroke="none" d="M 1471,1408 L 1471,1394 1470,1380 1468,1367 1465,1353 1462,1340 1459,1327 1454,1314 1449,1301 1443,1288 1437,1276 1430,1264 1422,1253 1414,1242 1405,1231 1396,1221 1386,1211 1376,1202 1365,1193 1354,1185 1343,1177 1331,1170 1319,1164 1306,1158 1293,1153 1280,1148 1267,1145 1254,1142 1240,1139 1227,1137 1213,1136 1199,1136 1199,1136 1185,1136 1171,1137 1158,1139 1144,1142 1131,1145 1118,1148 1105,1153 1092,1158 1079,1164 1067,1170 1055,1177 1044,1185 1033,1193 1022,1202 1012,1211 1002,1221 993,1231 984,1242 976,1253 968,1264 961,1276 955,1288 949,1301 944,1314 939,1327 936,1340 933,1353 930,1367 928,1380 927,1394 927,1408 927,1408 927,1422 928,1436 930,1449 933,1463 936,1476 939,1489 944,1502 949,1515 955,1528 961,1540 968,1552 976,1563 984,1574 993,1585 1002,1595 1012,1605 1022,1614 1033,1623 1044,1631 1055,1639 1067,1646 1079,1652 1092,1658 1105,1663 1118,1668 1131,1671 1144,1674 1158,1677 1171,1679 1185,1680 1199,1680 1199,1680 1213,1680 1227,1679 1240,1677 1254,1674 1267,1671 1280,1668 1293,1663 1306,1658 1319,1652 1331,1646 1343,1639 1354,1631 1365,1623 1376,1614 1386,1605 1396,1595 1405,1585 1414,1574 1422,1563 1430,1552 1437,1540 1443,1528 1449,1515 1454,1502 1459,1489 1462,1476 1465,1463 1468,1449 1470,1436 1471,1422 1471,1408 Z M 1417,1408 L 1417,1397 1416,1386 1414,1375 1413,1364 1410,1353 1407,1343 1403,1332 1399,1322 1395,1312 1390,1302 1384,1293 1378,1283 1371,1275 1364,1266 1357,1258 1349,1250 1341,1243 1332,1236 1324,1229 1314,1223 1305,1217 1295,1212 1285,1208 1275,1204 1264,1200 1254,1197 1243,1194 1232,1193 1221,1191 1210,1190 1199,1190 1199,1190 1188,1190 1177,1191 1166,1193 1155,1194 1144,1197 1134,1200 1123,1204 1113,1208 1103,1212 1093,1217 1084,1223 1074,1229 1066,1236 1057,1243 1049,1250 1041,1258 1034,1266 1027,1275 1020,1283 1014,1293 1008,1302 1003,1312 999,1322 995,1332 991,1343 988,1353 985,1364 984,1375 982,1386 981,1397 981,1408 981,1408 981,1419 982,1430 984,1441 985,1452 988,1463 991,1473 995,1484 999,1494 1003,1504 1008,1514 1014,1523 1020,1533 1027,1541 1034,1550 1041,1558 1049,1566 1057,1573 1066,1580 1074,1587 1084,1593 1093,1599 1103,1604 1113,1608 1123,1612 1134,1616 1144,1619 1155,1622 1166,1623 1177,1625 1188,1626 1199,1626 1199,1626 1210,1626 1221,1625 1232,1623 1243,1622 1254,1619 1264,1616 1275,1612 1285,1608 1295,1604 1305,1599 1314,1593 1324,1587 1332,1580 1341,1573 1349,1566 1357,1558 1364,1550 1371,1541 1378,1533 1384,1523 1390,1514 1395,1504 1399,1494 1403,1484 1407,1473 1410,1463 1413,1452 1414,1441 1416,1430 1417,1419 1417,1408 Z"/>
              <path fill="rgb(232,236,217)" stroke="none" d="M 1417,1408 L 1417,1397 1416,1386 1414,1375 1413,1364 1410,1353 1407,1343 1403,1332 1399,1322 1395,1312 1390,1302 1384,1293 1378,1283 1371,1275 1364,1266 1357,1258 1349,1250 1341,1243 1332,1236 1324,1229 1314,1223 1305,1217 1295,1212 1285,1208 1275,1204 1264,1200 1254,1197 1243,1194 1232,1193 1221,1191 1210,1190 1199,1190 1199,1190 1188,1190 1177,1191 1166,1193 1155,1194 1144,1197 1134,1200 1123,1204 1113,1208 1103,1212 1093,1217 1084,1223 1074,1229 1066,1236 1057,1243 1049,1250 1041,1258 1034,1266 1027,1275 1020,1283 1014,1293 1008,1302 1003,1312 999,1322 995,1332 991,1343 988,1353 985,1364 984,1375 982,1386 981,1397 981,1408 981,1408 981,1419 982,1430 984,1441 985,1452 988,1463 991,1473 995,1484 999,1494 1003,1504 1008,1514 1014,1523 1020,1533 1027,1541 1034,1550 1041,1558 1049,1566 1057,1573 1066,1580 1074,1587 1084,1593 1093,1599 1103,1604 1113,1608 1123,1612 1134,1616 1144,1619 1155,1622 1166,1623 1177,1625 1188,1626 1199,1626 1199,1626 1210,1626 1221,1625 1232,1623 1243,1622 1254,1619 1264,1616 1275,1612 1285,1608 1295,1604 1305,1599 1314,1593 1324,1587 1332,1580 1341,1573 1349,1566 1357,1558 1364,1550 1371,1541 1378,1533 1384,1523 1390,1514 1395,1504 1399,1494 1403,1484 1407,1473 1410,1463 1413,1452 1414,1441 1416,1430 1417,1419 1417,1408 Z M 1362,1408 L 1362,1400 1361,1392 1360,1383 1359,1375 1357,1367 1355,1359 1352,1351 1349,1344 1345,1336 1342,1329 1337,1322 1333,1315 1328,1308 1323,1302 1317,1296 1311,1290 1305,1284 1299,1279 1292,1274 1285,1270 1278,1265 1271,1262 1263,1258 1256,1255 1248,1252 1240,1250 1232,1248 1224,1247 1215,1246 1207,1245 1199,1245 1199,1245 1191,1245 1183,1246 1174,1247 1166,1248 1158,1250 1150,1252 1142,1255 1135,1258 1127,1262 1120,1265 1113,1270 1106,1274 1099,1279 1093,1284 1087,1290 1081,1296 1075,1302 1070,1308 1065,1315 1061,1322 1056,1329 1053,1336 1049,1344 1046,1351 1043,1359 1041,1367 1039,1375 1038,1383 1037,1392 1036,1400 1036,1408 1036,1408 1036,1416 1037,1424 1038,1433 1039,1441 1041,1449 1043,1457 1046,1465 1049,1472 1053,1480 1056,1487 1061,1494 1065,1501 1070,1508 1075,1514 1081,1520 1087,1526 1093,1532 1099,1537 1106,1542 1113,1546 1120,1551 1127,1554 1135,1558 1142,1561 1150,1564 1158,1566 1166,1568 1174,1569 1183,1570 1191,1571 1199,1571 1199,1571 1207,1571 1215,1570 1224,1569 1232,1568 1240,1566 1248,1564 1256,1561 1263,1558 1271,1554 1278,1551 1285,1546 1292,1542 1299,1537 1305,1532 1311,1526 1317,1520 1323,1514 1328,1508 1333,1501 1337,1494 1342,1487 1345,1480 1349,1472 1352,1465 1355,1457 1357,1449 1359,1441 1360,1433 1361,1424 1362,1416 1362,1408 Z"/>
              <path fill="rgb(233,237,222)" stroke="none" d="M 1362,1408 L 1362,1400 1361,1392 1360,1383 1359,1375 1357,1367 1355,1359 1352,1351 1349,1344 1345,1336 1342,1329 1337,1322 1333,1315 1328,1308 1323,1302 1317,1296 1311,1290 1305,1284 1299,1279 1292,1274 1285,1270 1278,1265 1271,1262 1263,1258 1256,1255 1248,1252 1240,1250 1232,1248 1224,1247 1215,1246 1207,1245 1199,1245 1199,1245 1191,1245 1183,1246 1174,1247 1166,1248 1158,1250 1150,1252 1142,1255 1135,1258 1127,1262 1120,1265 1113,1270 1106,1274 1099,1279 1093,1284 1087,1290 1081,1296 1075,1302 1070,1308 1065,1315 1061,1322 1056,1329 1053,1336 1049,1344 1046,1351 1043,1359 1041,1367 1039,1375 1038,1383 1037,1392 1036,1400 1036,1408 1036,1408 1036,1416 1037,1424 1038,1433 1039,1441 1041,1449 1043,1457 1046,1465 1049,1472 1053,1480 1056,1487 1061,1494 1065,1501 1070,1508 1075,1514 1081,1520 1087,1526 1093,1532 1099,1537 1106,1542 1113,1546 1120,1551 1127,1554 1135,1558 1142,1561 1150,1564 1158,1566 1166,1568 1174,1569 1183,1570 1191,1571 1199,1571 1199,1571 1207,1571 1215,1570 1224,1569 1232,1568 1240,1566 1248,1564 1256,1561 1263,1558 1271,1554 1278,1551 1285,1546 1292,1542 1299,1537 1305,1532 1311,1526 1317,1520 1323,1514 1328,1508 1333,1501 1337,1494 1342,1487 1345,1480 1349,1472 1352,1465 1355,1457 1357,1449 1359,1441 1360,1433 1361,1424 1362,1416 1362,1408 Z M 1308,1408 L 1308,1402 1307,1397 1307,1391 1306,1386 1305,1381 1303,1375 1301,1370 1299,1365 1297,1360 1294,1355 1292,1350 1288,1346 1285,1341 1282,1337 1278,1333 1274,1329 1270,1325 1266,1322 1261,1319 1257,1315 1252,1313 1247,1310 1242,1308 1237,1306 1232,1304 1226,1302 1221,1301 1216,1300 1210,1300 1205,1299 1199,1299 1199,1299 1193,1299 1188,1300 1182,1300 1177,1301 1172,1302 1166,1304 1161,1306 1156,1308 1151,1310 1146,1313 1141,1315 1137,1319 1132,1322 1128,1325 1124,1329 1120,1333 1116,1337 1113,1341 1110,1346 1106,1350 1104,1355 1101,1360 1099,1365 1097,1370 1095,1375 1093,1381 1092,1386 1091,1391 1091,1397 1090,1402 1090,1408 1090,1408 1090,1414 1091,1419 1091,1425 1092,1430 1093,1435 1095,1441 1097,1446 1099,1451 1101,1456 1104,1461 1106,1466 1110,1470 1113,1475 1116,1479 1120,1483 1124,1487 1128,1491 1132,1494 1137,1497 1141,1501 1146,1503 1151,1506 1156,1508 1161,1510 1166,1512 1172,1514 1177,1515 1182,1516 1188,1516 1193,1517 1199,1517 1199,1517 1205,1517 1210,1516 1216,1516 1221,1515 1226,1514 1232,1512 1237,1510 1242,1508 1247,1506 1252,1503 1257,1501 1261,1497 1266,1494 1270,1491 1274,1487 1278,1483 1282,1479 1285,1475 1288,1470 1292,1466 1294,1461 1297,1456 1299,1451 1301,1446 1303,1441 1305,1435 1306,1430 1307,1425 1307,1419 1308,1414 1308,1408 Z"/>
              <path fill="rgb(235,237,227)" stroke="none" d="M 1308,1408 L 1308,1402 1307,1397 1307,1391 1306,1386 1305,1381 1303,1375 1301,1370 1299,1365 1297,1360 1294,1355 1292,1350 1288,1346 1285,1341 1282,1337 1278,1333 1274,1329 1270,1325 1266,1322 1261,1319 1257,1315 1252,1313 1247,1310 1242,1308 1237,1306 1232,1304 1226,1302 1221,1301 1216,1300 1210,1300 1205,1299 1199,1299 1199,1299 1193,1299 1188,1300 1182,1300 1177,1301 1172,1302 1166,1304 1161,1306 1156,1308 1151,1310 1146,1313 1141,1315 1137,1319 1132,1322 1128,1325 1124,1329 1120,1333 1116,1337 1113,1341 1110,1346 1106,1350 1104,1355 1101,1360 1099,1365 1097,1370 1095,1375 1093,1381 1092,1386 1091,1391 1091,1397 1090,1402 1090,1408 1090,1408 1090,1414 1091,1419 1091,1425 1092,1430 1093,1435 1095,1441 1097,1446 1099,1451 1101,1456 1104,1461 1106,1466 1110,1470 1113,1475 1116,1479 1120,1483 1124,1487 1128,1491 1132,1494 1137,1497 1141,1501 1146,1503 1151,1506 1156,1508 1161,1510 1166,1512 1172,1514 1177,1515 1182,1516 1188,1516 1193,1517 1199,1517 1199,1517 1205,1517 1210,1516 1216,1516 1221,1515 1226,1514 1232,1512 1237,1510 1242,1508 1247,1506 1252,1503 1257,1501 1261,1497 1266,1494 1270,1491 1274,1487 1278,1483 1282,1479 1285,1475 1288,1470 1292,1466 1294,1461 1297,1456 1299,1451 1301,1446 1303,1441 1305,1435 1306,1430 1307,1425 1307,1419 1308,1414 1308,1408 Z M 1253,1408 L 1253,1405 1253,1403 1252,1400 1252,1397 1251,1394 1251,1392 1250,1389 1249,1387 1247,1384 1246,1382 1245,1379 1243,1377 1242,1375 1240,1373 1238,1371 1236,1369 1234,1367 1232,1365 1230,1364 1228,1362 1225,1361 1223,1360 1220,1358 1218,1357 1215,1356 1213,1356 1210,1355 1207,1355 1204,1354 1202,1354 1199,1354 1199,1354 1196,1354 1194,1354 1191,1355 1188,1355 1185,1356 1183,1356 1180,1357 1178,1358 1175,1360 1173,1361 1170,1362 1168,1364 1166,1365 1164,1367 1162,1369 1160,1371 1158,1373 1156,1375 1155,1377 1153,1379 1152,1382 1151,1384 1149,1387 1148,1389 1147,1392 1147,1394 1146,1397 1146,1400 1145,1403 1145,1405 1145,1408 1145,1408 1145,1411 1145,1413 1146,1416 1146,1419 1147,1422 1147,1424 1148,1427 1149,1429 1151,1432 1152,1434 1153,1437 1155,1439 1156,1441 1158,1443 1160,1445 1162,1447 1164,1449 1166,1451 1168,1452 1170,1454 1173,1455 1175,1456 1178,1458 1180,1459 1183,1460 1185,1460 1188,1461 1191,1461 1194,1462 1196,1462 1199,1462 1199,1462 1202,1462 1204,1462 1207,1461 1210,1461 1213,1460 1215,1460 1218,1459 1220,1458 1223,1456 1225,1455 1228,1454 1230,1452 1232,1451 1234,1449 1236,1447 1238,1445 1240,1443 1242,1441 1243,1439 1245,1437 1246,1434 1247,1432 1249,1429 1250,1427 1251,1424 1251,1422 1252,1419 1252,1416 1253,1413 1253,1411 1253,1408 Z"/>
              <path fill="rgb(238,238,238)" stroke="none" d="M 1253,1408 L 1253,1405 1253,1403 1252,1400 1252,1397 1251,1394 1251,1392 1250,1389 1249,1387 1247,1384 1246,1382 1245,1379 1243,1377 1242,1375 1240,1373 1238,1371 1236,1369 1234,1367 1232,1365 1230,1364 1228,1362 1225,1361 1223,1360 1220,1358 1218,1357 1215,1356 1213,1356 1210,1355 1207,1355 1204,1354 1202,1354 1199,1354 1199,1354 1196,1354 1194,1354 1191,1355 1188,1355 1185,1356 1183,1356 1180,1357 1178,1358 1175,1360 1173,1361 1170,1362 1168,1364 1166,1365 1164,1367 1162,1369 1160,1371 1158,1373 1156,1375 1155,1377 1153,1379 1152,1382 1151,1384 1149,1387 1148,1389 1147,1392 1147,1394 1146,1397 1146,1400 1145,1403 1145,1405 1145,1408 1145,1408 1145,1411 1145,1413 1146,1416 1146,1419 1147,1422 1147,1424 1148,1427 1149,1429 1151,1432 1152,1434 1153,1437 1155,1439 1156,1441 1158,1443 1160,1445 1162,1447 1164,1449 1166,1451 1168,1452 1170,1454 1173,1455 1175,1456 1178,1458 1180,1459 1183,1460 1185,1460 1188,1461 1191,1461 1194,1462 1196,1462 1199,1462 1199,1462 1202,1462 1204,1462 1207,1461 1210,1461 1213,1460 1215,1460 1218,1459 1220,1458 1223,1456 1225,1455 1228,1454 1230,1452 1232,1451 1234,1449 1236,1447 1238,1445 1240,1443 1242,1441 1243,1439 1245,1437 1246,1434 1247,1432 1249,1429 1250,1427 1251,1424 1251,1422 1252,1419 1252,1416 1253,1413 1253,1411 1253,1408 Z"/>
             </g>
            </g>
           </pattern>
          </defs>
          <path style="fill:url(#pattern1)" d="M 1982,1736 L 1980,1843 1974,1949 1963,2054 1949,2158 1930,2259 1908,2359 1881,2456 1851,2551 1817,2642 1780,2728 1739,2811 1695,2888 1649,2961 1599,3029 1547,3091 1493,3148 1436,3198 1378,3242 1318,3280 1257,3310 1195,3335 1163,3344 1131,3352 1100,3358 1068,3362 1036,3365 1004,3366 971,3365 939,3362 907,3358 876,3352 844,3344 812,3335 750,3310 689,3280 629,3242 571,3198 514,3148 460,3091 408,3029 358,2961 312,2888 268,2811 227,2728 190,2642 156,2551 126,2456 99,2359 77,2259 58,2158 44,2054 33,1949 27,1843 25,1736 27,1628 33,1522 44,1417 58,1313 77,1212 99,1112 126,1015 156,920 190,829 227,743 268,660 312,583 358,510 408,442 460,380 514,323 571,273 629,229 689,191 750,161 812,136 844,127 876,119 907,113 939,109 971,106 1003,105 1036,106 1068,109 1100,113 1131,119 1163,127 1195,136 1257,161 1318,191 1378,229 1436,273 1493,323 1547,380 1599,442 1649,510 1695,583 1739,660 1780,743 1817,829 1851,920 1881,1015 1908,1112 1930,1212 1949,1313 1963,1417 1974,1522 1980,1628 1982,1735 1982,1736 Z"/>
         </g>
         <path fill="none" stroke="rgb(128,128,128)" stroke-width="20" stroke-linejoin="round" d="M 1982,1736 C 1982,2022 1937,2303 1851,2551 1765,2799 1642,3004 1493,3148 1344,3291 1175,3366 1004,3366 832,3366 663,3291 514,3148 365,3004 242,2799 156,2551 70,2303 25,2022 25,1736 25,1449 70,1168 156,920 242,672 365,467 514,323 663,180 832,105 1003,105 1175,105 1344,180 1493,323 1642,467 1765,672 1851,920 1937,1168 1982,1449 1982,1735 L 1982,1736 Z"/>
        </g>
       </g>
       <g class="Group">
        <g class="com.sun.star.drawing.OpenBezierShape">
         <g id="id4">
          <rect class="BoundingBox" stroke="none" fill="none" x="941" y="504" width="380" height="1228"/>
          <path fill="none" stroke="rgb(128,128,128)" stroke-width="20" stroke-linejoin="round" d="M 1014,1720 C 771,1149 1309,514 1309,514"/>
         </g>
        </g>
        <g class="com.sun.star.drawing.OpenBezierShape">
         <g id="id5">
          <rect class="BoundingBox" stroke="none" fill="none" x="732" y="1705" width="360" height="1234"/>
          <path fill="none" stroke="rgb(128,128,128)" stroke-width="20" stroke-linejoin="round" d="M 1010,1715 C 1266,2280 742,2927 742,2927"/>
         </g>
        </g>
       </g>
      </g>
     </g>
    </g>
   </g>
  </g>
 </g>
</svg>